<svg xmlns="http://www.w3.org/2000/svg" xmlns:xlink="http://www.w3.org/1999/xlink" width="229.984" height="229.984" viewBox="0 0 229.984 229.984">
  <defs>
    <clipPath id="clip-path">
      <rect id="Rectangle_310" data-name="Rectangle 310" width="229.984" height="229.984" fill="none"/>
    </clipPath>
  </defs>
  <g id="Group_218" data-name="Group 218" transform="translate(-558.319 -5168.126)">
    <g id="Group_210" data-name="Group 210" transform="translate(558.319 5168.126)">
      <g id="Group_209" data-name="Group 209" clip-path="url(#clip-path)">
        <path id="Path_1505" data-name="Path 1505" d="M114.992,229.984A114.992,114.992,0,1,1,229.984,114.992,115.123,115.123,0,0,1,114.992,229.984m0-197.9a82.909,82.909,0,1,0,82.909,82.91,83,83,0,0,0-82.909-82.91" fill="#4d4d4d"/>
        <path id="Path_1506" data-name="Path 1506" d="M274.58,126.71a6.417,6.417,0,0,1-6.417-6.417A92.639,92.639,0,0,0,175.63,27.759a6.417,6.417,0,1,1,0-12.833A105.487,105.487,0,0,1,281,120.293a6.417,6.417,0,0,1-6.417,6.417" transform="translate(-60.637 -5.349)" fill="#00ae83"/>
      </g>
    </g>
    <text id="_21_" data-name="21%" transform="translate(631.535 5297.02)" fill="#00ae83" font-size="49" font-family="Helvetica"><tspan x="0" y="0">21%</tspan></text>
  </g>
</svg>
