<svg xmlns="http://www.w3.org/2000/svg" xmlns:xlink="http://www.w3.org/1999/xlink" width="229.984" height="229.984" viewBox="0 0 229.984 229.984">
  <defs>
    <clipPath id="clip-path">
      <rect id="Rectangle_312" data-name="Rectangle 312" width="229.984" height="229.985" fill="none"/>
    </clipPath>
  </defs>
  <g id="Group_220" data-name="Group 220" transform="translate(-558.318 -5611.003)">
    <g id="Group_214" data-name="Group 214" transform="translate(558.318 5611.003)">
      <g id="Group_213" data-name="Group 213" clip-path="url(#clip-path)">
        <path id="Path_1509" data-name="Path 1509" d="M114.992,229.985A114.992,114.992,0,1,1,229.984,114.992,115.123,115.123,0,0,1,114.992,229.985m0-197.9a82.91,82.91,0,1,0,82.909,82.91,83,83,0,0,0-82.909-82.91" fill="#4d4d4d"/>
        <path id="Path_1510" data-name="Path 1510" d="M191.458,224.4a6.417,6.417,0,0,1-1.011-12.753A92.542,92.542,0,0,0,175.63,27.76a6.417,6.417,0,1,1,0-12.833A105.376,105.376,0,0,1,192.486,224.32a6.437,6.437,0,0,1-1.027.083" transform="translate(-60.637 -5.349)" fill="#00ae83"/>
      </g>
    </g>
    <text id="_47_" data-name="47%" transform="translate(624.982 5739.897)" fill="#00ae83" font-size="49" font-family="Helvetica"><tspan x="0" y="0">47%</tspan></text>
  </g>
</svg>
