<svg xmlns="http://www.w3.org/2000/svg" xmlns:xlink="http://www.w3.org/1999/xlink" width="229.985" height="229.984" viewBox="0 0 229.985 229.984">
  <defs>
    <clipPath id="clip-path">
      <rect id="Rectangle_311" data-name="Rectangle 311" width="229.985" height="229.984" fill="none"/>
    </clipPath>
  </defs>
  <g id="Group_219" data-name="Group 219" transform="translate(-1131.508 -5168.126)">
    <g id="Group_212" data-name="Group 212" transform="translate(1131.508 5168.126)">
      <g id="Group_211" data-name="Group 211" clip-path="url(#clip-path)">
        <path id="Path_1507" data-name="Path 1507" d="M114.992,229.984A114.992,114.992,0,1,1,229.985,114.992,115.123,115.123,0,0,1,114.992,229.984m0-197.9a82.909,82.909,0,1,0,82.91,82.91,83,83,0,0,0-82.91-82.91" fill="#4d4d4d"/>
        <path id="Path_1508" data-name="Path 1508" d="M167.38,225.661a106.533,106.533,0,0,1-15.72-1.166,6.417,6.417,0,0,1,1.9-12.692,93.634,93.634,0,0,0,13.821,1.025,92.534,92.534,0,1,0,0-185.069,6.417,6.417,0,0,1,0-12.833,105.367,105.367,0,1,1,0,210.735" transform="translate(-52.388 -5.349)" fill="#00ae83"/>
      </g>
    </g>
    <text id="_51.2_" data-name="51.2%" transform="translate(1185.293 5297.02)" fill="#00ae83" font-size="49" font-family="Helvetica"><tspan x="0" y="0">51.2%</tspan></text>
  </g>
</svg>
