<svg xmlns="http://www.w3.org/2000/svg" xmlns:xlink="http://www.w3.org/1999/xlink" width="229.985" height="229.984" viewBox="0 0 229.985 229.984">
  <defs>
    <clipPath id="clip-path">
      <rect id="Rectangle_313" data-name="Rectangle 313" width="229.985" height="229.985" fill="none"/>
    </clipPath>
  </defs>
  <g id="Group_221" data-name="Group 221" transform="translate(-1131.508 -5611.003)">
    <g id="Group_216" data-name="Group 216" transform="translate(1131.508 5611.003)">
      <g id="Group_215" data-name="Group 215" clip-path="url(#clip-path)">
        <path id="Path_1511" data-name="Path 1511" d="M114.992,229.985A114.992,114.992,0,1,1,229.985,114.992,115.123,115.123,0,0,1,114.992,229.985m0-197.9a82.91,82.91,0,1,0,82.91,82.91,83,83,0,0,0-82.91-82.91" fill="#4d4d4d"/>
        <path id="Path_1512" data-name="Path 1512" d="M120.368,225.661A105.375,105.375,0,0,1,61.4,32.959a6.416,6.416,0,1,1,7.19,10.63A92.548,92.548,0,1,0,120.368,27.76a6.417,6.417,0,1,1,0-12.833,105.367,105.367,0,1,1,0,210.734" transform="translate(-5.375 -5.349)" fill="#00ae83"/>
      </g>
    </g>
    <text id="_88_" data-name="88%" transform="translate(1197.817 5739.897)" fill="#00ae83" font-size="49" font-family="Helvetica"><tspan x="0" y="0" letter-spacing="-0.02em">8</tspan><tspan y="0">8%</tspan></text>
  </g>
</svg>
