<svg xmlns="http://www.w3.org/2000/svg" xmlns:xlink="http://www.w3.org/1999/xlink" width="386.173" height="272.116" viewBox="0 0 386.173 272.116">
  <defs>
    <filter id="Ellipse_46" x="0" y="17.558" width="104" height="104" filterUnits="userSpaceOnUse">
      <feOffset dy="3" input="SourceAlpha"/>
      <feGaussianBlur stdDeviation="3" result="blur"/>
      <feFlood flood-opacity="0.161"/>
      <feComposite operator="in" in2="blur"/>
      <feComposite in="SourceGraphic"/>
    </filter>
    <clipPath id="clip-path">
      <rect id="Rectangle_274" data-name="Rectangle 274" width="358.173" height="272.116" fill="#fff"/>
    </clipPath>
  </defs>
  <g id="Group_218" data-name="Group 218" transform="translate(-332 -7426.089)">
    <g id="_3" data-name="#3" transform="translate(-20 2658.647)">
      <g transform="matrix(1, 0, 0, 1, 352, 4767.44)" filter="url(#Ellipse_46)">
        <circle id="Ellipse_46-2" data-name="Ellipse 46" cx="43" cy="43" r="43" transform="translate(9 23.56)" fill="#fff"/>
      </g>
      <text id="_3-2" data-name="3" transform="translate(404 4846)" fill="#00644b" font-size="33" font-family="Poppins-Bold, Poppins" font-weight="700"><tspan x="-9.983" y="0">3</tspan></text>
    </g>
    <g id="Amplify_Icon" data-name="Amplify Icon" transform="translate(360 7426.089)">
      <g id="Group_149" data-name="Group 149" clip-path="url(#clip-path)">
        <path id="Path_1286" data-name="Path 1286" d="M395.5,214.95c-10.056,4.315-12.811,11.265-13.286,16.545a2.005,2.005,0,0,0-1.424-.591,14.033,14.033,0,0,0-11.237,22.447,14.038,14.038,0,1,0,14.786,21.424,2.047,2.047,0,0,0,.312.031h19.364a14.035,14.035,0,0,0,27.11-2.551A14.03,14.03,0,0,0,442.8,247.905a14.037,14.037,0,0,0-20.028-19.449,14.044,14.044,0,0,0-3.16-5.224A14.037,14.037,0,1,0,395.5,214.95m13.961-11.425a10.011,10.011,0,0,1,7.08,17.091c-.04.04-.068.086-.1.127a13.948,13.948,0,0,0-6.976-1.864,2.014,2.014,0,0,0,0,4.028,10.011,10.011,0,1,1-10.011,10.011,2.014,2.014,0,0,0-4.028,0,14.04,14.04,0,0,0,28.079,0c0-.062,0-.124,0-.187a1.993,1.993,0,0,0,1.176-.566,10.008,10.008,0,0,1,14.735,13.52,13.953,13.953,0,0,0-5.894-1.3,2.014,2.014,0,0,0,0,4.028A10.011,10.011,0,1,1,423.5,258.423a2.014,2.014,0,0,0-4.028,0,14.052,14.052,0,0,0,7.751,12.547,10.01,10.01,0,1,1-16.771-8.188,2.014,2.014,0,0,0-2.735-2.957,14.011,14.011,0,0,0-4.482,10.954H386.16a14.011,14.011,0,0,0,.507-3.73,2.014,2.014,0,1,0-4.028,0,10.011,10.011,0,1,1-10.011-10.011,2.005,2.005,0,0,0,.783-.158,13.954,13.954,0,0,0,7.382,2.1,2.014,2.014,0,1,0,0-4.028,10.011,10.011,0,1,1,0-20.023,2,2,0,0,0,1.37-.545,18.235,18.235,0,0,0,.71,4.364,2.014,2.014,0,0,0,3.815-1.293c-.175-.516-3.962-12.255,9.81-18.545a13.959,13.959,0,0,0,3.039,4.549,2.014,2.014,0,1,0,2.848-2.849,10.011,10.011,0,0,1,7.079-17.091" transform="translate(-178.025 -99.042)" fill="#fff"/>
        <path id="Path_1287" data-name="Path 1287" d="M342.094,78.6a2.014,2.014,0,0,0-.646,1.93l4.136,19.757a2.014,2.014,0,0,0,3.274,1.124l11.556-9.8a2.014,2.014,0,0,0-2.605-3.073l-8.975,7.61-3.2-15.291,11.155-9.745a2.014,2.014,0,0,0,.672-1.778c-3.656-27.91.268-44.288,4.2-53.112,3.106-6.965,6.7-10.415,8.382-11.752,3.082,2.393,12.232,11.325,12.232,32.943a2.014,2.014,0,1,0,4.028,0c0-28.19-14.652-36.8-15.276-37.15a2.016,2.016,0,0,0-1.961-.012c-.936.514-22.7,13.147-15.74,68.535Z" transform="translate(-169.495 0)" fill="#fff"/>
        <path id="Path_1288" data-name="Path 1288" d="M410.254,133.8a2.013,2.013,0,0,0,.169,2.843l11.024,9.788-3.523,15.238-9.192-7.091a2.014,2.014,0,0,0-1.23-.419h-9.731a2.014,2.014,0,1,0,0,4.028H401.6v19.158a2.014,2.014,0,1,0,4.028,0V158.184h1.192l11.133,8.589a2.015,2.015,0,0,0,3.193-1.141l4.5-19.462a2.013,2.013,0,0,0-.626-1.96L413.1,133.628a2.014,2.014,0,0,0-2.843.169" transform="translate(-196.479 -66.089)" fill="#fff"/>
        <path id="Path_1289" data-name="Path 1289" d="M396.279,227.158a2.014,2.014,0,0,0,2.014-2.014V204.222a2.014,2.014,0,0,0-4.028,0v20.922a2.014,2.014,0,0,0,2.014,2.014" transform="translate(-195.737 -100.389)" fill="#fff"/>
        <path id="Path_1290" data-name="Path 1290" d="M381.742,199.427v10.321a2.014,2.014,0,0,0,4.028,0V199.427a2.014,2.014,0,1,0-4.028,0" transform="translate(-189.52 -98.008)" fill="#fff"/>
        <path id="Path_1291" data-name="Path 1291" d="M398.34,56.839a7.638,7.638,0,1,0-7.638,7.638,7.646,7.646,0,0,0,7.638-7.638m-11.247,0a3.609,3.609,0,1,1,3.609,3.609,3.613,3.613,0,0,1-3.609-3.609" transform="translate(-190.177 -24.427)" fill="#fff"/>
        <path id="Path_1292" data-name="Path 1292" d="M453.962,261.355c-1.332-.854-32.918-20.809-58.759-11.481-7.99,2.884-14.512,8.266-19.51,16.051l-3.432-2.022c-1.24-10.738-4.592-23.131-13.247-27.214-6.272-2.96-14.256-1.116-23.815,5.471l-9.848-5.8c-.393-2.008-.845-4.1-1.365-6.216-3.848-15.657-9.366-24.449-16.4-26.134-5.8-1.388-12.021,1.974-18.864,10.228l-8.861-5.22c-3.331-10.4-8.459-23.075-15.356-30.754V117.222h2.8a2.014,2.014,0,1,0,0-4.028h-2.8V97.728h5.581a2.014,2.014,0,1,0,0-4.028H264.5V69.409l8.582,5.239a2.014,2.014,0,1,0,2.1-3.438l-11.617-7.091-.061-.038L241.513,50.657a2.106,2.106,0,0,0-.192-.1l-.039-.02a1.976,1.976,0,0,0-.324-.109c-.028-.008-.056-.013-.084-.019a2.041,2.041,0,0,0-.287-.039c-.021,0-.042-.005-.064-.006a2.02,2.02,0,0,0-.335.019c-.031,0-.061.011-.092.017a1.96,1.96,0,0,0-.275.071c-.024.008-.048.014-.072.023a2.041,2.041,0,0,0-.272.125c-.017.009-.031.021-.047.031s-.019.008-.028.014l-24.17,14.974a2.015,2.015,0,0,0-.953,1.713v44.328l-2.231-1.362a1.9,1.9,0,0,0-.19-.1l-.041-.022a2.006,2.006,0,0,0-.322-.109c-.029-.008-.057-.013-.086-.019a2.085,2.085,0,0,0-.283-.038c-.022,0-.044-.005-.066-.006a2.02,2.02,0,0,0-.335.019c-.031,0-.061.011-.092.017a1.971,1.971,0,0,0-.275.072c-.024.008-.048.014-.072.023a2.049,2.049,0,0,0-.273.125c-.016.009-.031.021-.047.031s-.019.008-.028.014L195.764,119.1a2.014,2.014,0,0,0-.953,1.712V197.25a2.014,2.014,0,0,0,.98,1.729l14.174,8.474.023.012.023.015c.038.021.077.037.115.055s.07.036.106.051.087.031.13.045.081.03.122.041.077.016.116.023.094.021.141.027.074,0,.11.007.1.01.145.01a2.017,2.017,0,0,0,.265-.018c.03,0,.06-.012.09-.018.057-.01.113-.02.169-.035.034-.009.067-.022.1-.033.051-.017.1-.033.153-.054.031-.013.06-.029.091-.043.052-.025.1-.05.154-.08.009-.006.018-.009.027-.014l8.251-5.015,19.134,11.44.024.012.023.015c.037.021.077.037.115.055s.07.036.106.051.087.031.13.045.082.03.123.04.077.016.116.024.094.021.141.027.073,0,.11.007.1.01.145.01a2.023,2.023,0,0,0,.265-.018c.03,0,.06-.012.09-.017.056-.01.113-.02.169-.035.034-.009.067-.022.1-.033.051-.017.1-.033.153-.054.031-.013.06-.029.091-.043.052-.025.1-.05.154-.08.009-.005.019-.009.027-.014l22.025-13.387a2.013,2.013,0,0,0,.968-1.721V184.765c4.671,6.827,8.539,16.35,11.375,25.058l-21.324,12.661a2.014,2.014,0,0,0,0,3.464l31.1,18.419a2.012,2.012,0,0,0,2.076-.014l22.725-13.874a2.014,2.014,0,0,0-.027-3.454l-18.181-10.711c5.495-6.473,10.384-9.35,14.4-8.388,7.086,1.7,11.641,14.6,14.267,26.772a1.961,1.961,0,0,0-.234.119l-22.964,13.635a2.014,2.014,0,0,0,0,3.465l31.1,18.419a2.014,2.014,0,0,0,2.076-.014l22.725-13.874a2.014,2.014,0,0,0-.027-3.454l-14.571-8.585c7.523-4.886,13.647-6.262,18.278-4.078,6.07,2.862,9.112,11.822,10.529,20.961a2.013,2.013,0,0,0-2,.027l-22.964,13.635a2.014,2.014,0,0,0,0,3.465l31.1,18.419a2.014,2.014,0,0,0,2.076-.014l22.725-13.874a2.014,2.014,0,0,0-.027-3.454L379.17,267.974c4.511-6.96,10.325-11.754,17.389-14.307,23.963-8.659,54.919,10.882,55.229,11.08a2.014,2.014,0,0,0,2.174-3.392M208.985,202.173l-10.145-6.066v-74.17l10.145-6.285Zm12.917-5.433-8.888,5.4V115.625l8.888,5.425Zm16.548,11.85-14.261-8.526.773-.47a2.014,2.014,0,0,0,.968-1.721V119.919a2.015,2.015,0,0,0-.965-1.719l-6.657-4.063V68.471L238.45,55.993Zm22.025-34.046a16.51,16.51,0,0,0-5.639-2.786,2.014,2.014,0,1,0-1.009,3.9,15.037,15.037,0,0,1,6.648,4.164v17.8l-18,10.938V55.965l18,10.986Zm25.742,42.893q-1.4,1.891-2.836,4.039c-.457-1.858-1.058-4.171-1.8-6.771Zm19.271,11.353-18.825,11.493-27.133-16.071,17.584-10.44c1.57,5.23,2.725,9.931,3.406,13.241a2.014,2.014,0,0,0,3.689.648q2.827-4.6,5.5-8.165Zm26.177,15.963q-2.163,1.683-4.423,3.661c-.218-1.823-.53-4.169-.96-6.831Zm16.982,10-18.825,11.493-27.133-16.071,19.019-11.292.045.026c1.006,5.45,1.616,10.448,1.89,13.823a2.014,2.014,0,0,0,3.384,1.308,102.351,102.351,0,0,1,8.363-7.1Zm25,14.637c-.28.52-.558,1.043-.827,1.582-.032-.693-.071-1.408-.119-2.139Zm20.14,11.865-18.825,11.493-27.133-16.071,19.02-11.292,1.6.944a100.306,100.306,0,0,1,.332,14.98,2.015,2.015,0,0,0,1.639,2.107,2.045,2.045,0,0,0,.373.034,2.014,2.014,0,0,0,1.918-1.4,62.583,62.583,0,0,1,4.412-10.607Z" transform="translate(-96.716 -25.003)" fill="#fff"/>
        <path id="Path_1293" data-name="Path 1293" d="M336.469,443.874l-155.6-90.07a2.014,2.014,0,0,0-2.018,3.487l155.6,90.07a2.014,2.014,0,0,0,2.018-3.486" transform="translate(-88.293 -175.516)" fill="#fff"/>
        <path id="Path_1294" data-name="Path 1294" d="M158.624,391.242l-155.6-90.07a2.014,2.014,0,0,0-2.018,3.487l155.6,90.07a2.014,2.014,0,1,0,2.018-3.487" transform="translate(0 -149.386)" fill="#fff"/>
      </g>
    </g>
  </g>
</svg>
