<svg class="erc-icon" id="chat "viewBox="0 0 271 273"><defs><filter id="chat-a" x="0" y="0" width="104" height="104" filterUnits="userSpaceOnUse"><feOffset dy="3" input="SourceAlpha"/><feGaussianBlur stdDeviation="3" result="b"/><feFlood flood-opacity="0.161"/><feComposite operator="in" in2="b"/><feComposite in="SourceGraphic"/></filter></defs><g transform="translate(61 85.577)"><circle class="a" cx="131" cy="131" r="131" transform="translate(-52 -74.577)"/><path class="b" d="M181.547,161.2a13.8,13.8,0,0,1-1.574-.075,3.019,3.019,0,0,1-1.06-5.659c.276-.154,6.688-3.841,5.525-12.655h-8.424a14.244,14.244,0,0,1-14.228-14.228V82.534a14.244,14.244,0,0,1,14.228-14.228h67.034a14.244,14.244,0,0,1,14.228,14.228v46.054a14.244,14.244,0,0,1-14.228,14.228H210.293C199.5,159.658,186.1,161.2,181.547,161.2m-5.533-86.86a8.2,8.2,0,0,0-8.19,8.19v46.054a8.2,8.2,0,0,0,8.19,8.189h10.9a3.02,3.02,0,0,1,2.924,2.265,19.954,19.954,0,0,1-1.482,14.914c5.045-1.74,11.777-5.9,17.665-15.713a3.019,3.019,0,0,1,2.589-1.466h34.436a8.2,8.2,0,0,0,8.19-8.189V82.534a8.2,8.2,0,0,0-8.19-8.19Z" transform="translate(-94.32 -41.044)"/><path class="b" d="M19.761,92.9a13.793,13.793,0,0,1-1.574-.075,3.019,3.019,0,0,1-1.06-5.659c.276-.154,6.688-3.841,5.525-12.655H14.228A14.244,14.244,0,0,1,0,60.282V14.228A14.244,14.244,0,0,1,14.228,0H81.261A14.244,14.244,0,0,1,95.49,14.228v4.385a3.019,3.019,0,1,1-6.038,0V14.228a8.2,8.2,0,0,0-8.19-8.19H14.228a8.2,8.2,0,0,0-8.189,8.19V60.282a8.2,8.2,0,0,0,8.189,8.19h10.9a3.019,3.019,0,0,1,2.923,2.264A19.953,19.953,0,0,1,26.572,85.65c5.045-1.74,11.777-5.9,17.665-15.713a3.02,3.02,0,0,1,2.589-1.466h4.745a3.019,3.019,0,0,1,0,6.038H48.506C37.718,91.352,24.313,92.9,19.761,92.9" transform="translate(0 -7)"/><g class="e" transform="matrix(1, 0, 0, 1, -61, -85.58)"><circle class="c" cx="43" cy="43" r="43" transform="translate(9 6)"/></g><text class="d" transform="translate(-9 -24.577)"><tspan x="-9.422" y="0">2</tspan></text></g></svg>