<svg viewBox="0 0 271 273"><defs><clipPath id="partner-a"><rect class="partner-a" width="154.385" height="110.528"/></clipPath><filter id="partner-b" x="0" y="0" width="104" height="104" filterUnits="userSpaceOnUse"><feOffset dy="3" input="SourceAlpha"/><feGaussianBlur stdDeviation="3" result="c"/><feFlood flood-opacity="0.161"/><feComposite operator="in" in2="c"/><feComposite in="SourceGraphic"/></filter></defs><g transform="translate(62.809 91)"><circle class="b" cx="131" cy="131" r="131" transform="translate(-53.809 -80)"/><g class="c"><path class="a" d="M153.978,49.793,126.107,1.519A3.032,3.032,0,0,0,121.962.409L108.682,8.075a3.034,3.034,0,0,0-1.111,4.145l1.552,2.689-8.382,3.33-16.48-6.408a3.034,3.034,0,0,0-1.484-.182l-26.77,3.419a3.037,3.037,0,0,0-1.853.961c-.206.226-5.027,5.582-3.131,11.438,1.452,4.484,6.243,7.593,14.24,9.241A105.793,105.793,0,0,0,82.586,38.94c5.081.282,6.792.377,11.286,3.788,8.7,6.6,25.694,21.161,25.865,21.306a2.981,2.981,0,0,0,1.165.61,3.045,3.045,0,0,0,.334.334,3.951,3.951,0,0,1-5,6.122L107.1,63.64a3.035,3.035,0,0,0-3.837,4.7l1.218.993L112.4,75.8a3.951,3.951,0,1,1-5,6.122l-9.671-7.892h0l-.837-.683a3.034,3.034,0,0,0-3.837,4.7l10.508,8.575a3.951,3.951,0,0,1-5,6.123L91.5,86.978a2.989,2.989,0,0,0-.324-.214l-3.589-2.928a3.034,3.034,0,0,0-3.837,4.7l7.071,5.77a3.951,3.951,0,1,1-5,6.122L78.8,94.7a9.987,9.987,0,0,0-6.38-9.281,10,10,0,0,0-4.4-13.184l3.3-2.691a10.02,10.02,0,0,0-12.67-15.527l-.214.175a10.021,10.021,0,0,0-15.967-5l-9.351,7.632a18.122,18.122,0,0,0-8.28-6.522L46.813,12.22A3.034,3.034,0,0,0,45.7,8.075L32.423.409a3.032,3.032,0,0,0-4.145,1.111L.407,49.793a3.033,3.033,0,0,0,1.111,4.144L14.8,61.6a3.031,3.031,0,0,0,1.517.407,3.033,3.033,0,0,0,2.628-1.517l2.823-4.889c2.091.79,5.222,2.378,6.594,5.133a10.007,10.007,0,0,0,5.71,17.25A9.987,9.987,0,0,0,42.9,88.81a9.988,9.988,0,0,0,8.829,10.824,10.02,10.02,0,0,0,16.311,8.642l7.072-5.771a10.071,10.071,0,0,0,1.609-1.669l5.265,4.3A10.015,10.015,0,0,0,98.16,99.266,10,10,0,0,0,111.042,88.81a9.988,9.988,0,0,0,8.833-10.822,10.012,10.012,0,0,0,6.014-16.963c1.291-2.944,4.562-4.612,6.728-5.423l2.825,4.893a3.034,3.034,0,0,0,4.145,1.111l13.279-7.668a3.034,3.034,0,0,0,1.111-4.144M15.2,54.832,7.18,50.2,32.016,7.181l8.024,4.632ZM32.147,70.537a3.956,3.956,0,0,1,.563-5.56L46.3,53.886a3.951,3.951,0,0,1,5,6.123L37.706,71.1a3.952,3.952,0,0,1-5.559-.562m8.833,10.824a3.957,3.957,0,0,1,.563-5.56L62.48,58.715a3.951,3.951,0,1,1,5,6.122l-10.428,8.51h0L46.54,81.924a3.958,3.958,0,0,1-5.56-.563m8.834,10.825a3.956,3.956,0,0,1,.563-5.56l10.51-8.577a3.952,3.952,0,0,1,5,6.124l-3.431,2.8-.007.005-7.072,5.771a3.957,3.957,0,0,1-5.559-.563m22.9,2.954A3.925,3.925,0,0,1,71.277,97.8l-7.071,5.771a3.951,3.951,0,1,1-5-6.122l7.075-5.774a3.952,3.952,0,0,1,6.426,3.462m48.335-37.966c-5.168-4.393-16.659-14.084-23.5-19.28-5.973-4.534-9.227-4.714-14.62-5.013a100.319,100.319,0,0,1-16.432-2.116c-5.526-1.138-8.966-2.968-9.686-5.15-.553-1.674.5-3.619,1.225-4.685l24.754-3.161,16.873,6.559a3.042,3.042,0,0,0,2.219-.008l10.317-4.1,17.363,30.073a17.861,17.861,0,0,0-8.507,6.88m18.135-2.342L114.344,11.813l8.024-4.632L147.2,50.2Z" transform="translate(0 0)"/></g><g class="f" transform="matrix(1, 0, 0, 1, -62.81, -91)"><circle class="d" cx="43" cy="43" r="43" transform="translate(9 6)"/></g><text class="e" transform="translate(-10.809 -30)"><tspan x="-9.983" y="0">3</tspan></text></g></svg>