<svg class="erc-icon" id="rocket" viewBox="0 0 271 273"><defs><clipPath id="rocket-a"><rect class="a" width="93.136" height="206.032"/></clipPath><filter id="rocket-b" x="0" y="0" width="104" height="104" filterUnits="userSpaceOnUse"><feOffset dy="3" input="SourceAlpha"/><feGaussianBlur stdDeviation="3" result="c"/><feFlood flood-opacity="0.161"/><feComposite operator="in" in2="c"/><feComposite in="SourceGraphic"/></filter></defs><g transform="translate(179.914 36.228) rotate(45)"><circle class="b" cx="131" cy="131" r="131" transform="translate(-138.693 103.016) rotate(-45)"/><g class="c"><path class="a" d="M1.12,127.741a3.274,3.274,0,0,0-1.05,3.136l6.721,32.11a3.273,3.273,0,0,0,5.321,1.826l18.781-15.925a3.274,3.274,0,0,0-4.234-4.994L12.072,156.263l-5.2-24.853L25,115.571a3.272,3.272,0,0,0,1.092-2.89c-5.942-45.36.435-71.979,6.831-86.321,5.048-11.32,10.888-16.927,13.623-19.1,5.008,3.89,19.88,18.405,19.88,53.541a3.274,3.274,0,1,0,6.547,0C72.972,14.986,49.158,1,48.144.424A3.277,3.277,0,0,0,44.957.4c-1.521.836-36.89,21.368-25.581,111.386Z" transform="translate(0 0)"/><path class="a" d="M77.913,134.219a3.273,3.273,0,0,0,.275,4.621l17.918,15.908-5.727,24.765L75.44,167.989a3.27,3.27,0,0,0-2-.682H57.627a3.274,3.274,0,1,0,0,6.547h6.216v31.137a3.274,3.274,0,1,0,6.547,0V173.855h1.936L90.42,187.814a3.274,3.274,0,0,0,5.19-1.854l7.314-31.631a3.27,3.27,0,0,0-1.016-3.185l-19.374-17.2a3.273,3.273,0,0,0-4.62.274" transform="translate(-9.872 -24.177)"/><path class="a" d="M56.134,242.757a3.274,3.274,0,0,0,3.274-3.274v-34a3.274,3.274,0,1,0-6.547,0v34a3.274,3.274,0,0,0,3.274,3.274" transform="translate(-9.601 -36.725)"/><path class="a" d="M40.337,200.686V217.46a3.274,3.274,0,1,0,6.547,0V200.686a3.274,3.274,0,1,0-6.547,0" transform="translate(-7.326 -35.854)"/><path class="a" d="M66.486,61.614A12.413,12.413,0,1,0,54.073,74.028,12.427,12.427,0,0,0,66.486,61.614m-18.279,0a5.866,5.866,0,1,1,5.866,5.866,5.873,5.873,0,0,1-5.866-5.866" transform="translate(-7.566 -8.936)"/></g><g class="f" transform="matrix(0.71, -0.71, 0.71, 0.71, -152.84, 101.6)"><circle class="d" cx="43" cy="43" r="43" transform="translate(9 6)"/></g><text class="e" transform="translate(-72.932 107.965) rotate(-45)"><tspan x="-6.204" y="0">1</tspan></text></g></svg>