<svg xmlns="http://www.w3.org/2000/svg" xmlns:xlink="http://www.w3.org/1999/xlink" width="113.813" height="68.18" viewBox="0 0 113.813 68.18">
  <defs>
    <clipPath id="clip-path">
      <rect id="Rectangle_317" data-name="Rectangle 317" width="113.813" height="68.18" fill="none"/>
    </clipPath>
  </defs>
  <g id="Community_Icon" data-name="Community Icon" clip-path="url(#clip-path)">
    <path id="Path_1527" data-name="Path 1527" d="M292.807,399.066H276.535a4.763,4.763,0,0,1-4.86-4.806,18.619,18.619,0,0,1,1.417-7.913,10.288,10.288,0,0,1,1.151-2.013,1.047,1.047,0,0,0,.195-.855,11.352,11.352,0,0,0-2.16-5.519,11.223,11.223,0,0,0-4.954-3.44c-.52-.2-1.054-.369-1.589-.529a1.535,1.535,0,0,1-1.18-1.882,1.474,1.474,0,0,1,1.958-1.028,17.213,17.213,0,0,1,5.564,2.567,12.649,12.649,0,0,1,4.878,7.122c.166.59.17.593.7.247a17.423,17.423,0,0,1,5.063-2.255,1.506,1.506,0,0,1,2.021,1,1.534,1.534,0,0,1-1.221,1.9,13.924,13.924,0,0,0-5.343,2.734,9.54,9.54,0,0,0-2.965,4.858,19.223,19.223,0,0,0-.538,4.765,1.81,1.81,0,0,0,1.974,1.995q16.164,0,32.327,0a1.718,1.718,0,0,0,1.934-1.68,15.014,15.014,0,0,0-1.286-7.107,10.289,10.289,0,0,0-5.718-4.93c-.618-.247-1.255-.447-1.887-.659a1.522,1.522,0,0,1-1.166-1.841,1.5,1.5,0,0,1,1.99-1.062,17.554,17.554,0,0,1,3.761,1.487,12.148,12.148,0,0,1,1.427.874c.391.286.5.144.6-.243a12.779,12.779,0,0,1,2.535-5.023,14.543,14.543,0,0,1,6.493-4.309c.491-.177.991-.334,1.5-.462a1.485,1.485,0,0,1,1.878,1.017,1.509,1.509,0,0,1-1.094,1.887,14.431,14.431,0,0,0-5.035,2.415,10.085,10.085,0,0,0-3.592,6.108,3,3,0,0,0,.45,2.51,14.1,14.1,0,0,1,2.052,6.534,24.852,24.852,0,0,1,.1,2.7,4.761,4.761,0,0,1-4.886,4.834H292.807" transform="translate(-235.9 -330.886)" fill="#00ae83"/>
    <path id="Path_1528" data-name="Path 1528" d="M108.253,164.663a9.726,9.726,0,0,1,4.766,1.265.658.658,0,0,0,.867-.043,13.941,13.941,0,0,1,4.914-2.419,1.551,1.551,0,0,1,2.069,1.011,1.511,1.511,0,0,1-1.188,1.869,13.22,13.22,0,0,0-3.393,1.516c-.374.241-.414.415-.138.791a11.754,11.754,0,0,1,1.637,11.672,9.932,9.932,0,0,1-7.949,6.786,9.2,9.2,0,0,1-8.63-3.081,12.047,12.047,0,0,1-.706-15.291,9.861,9.861,0,0,1,7.752-4.077m-7.119,10.8a9.245,9.245,0,0,0,2.129,6.358,6.6,6.6,0,0,0,9.128,1.011,8.917,8.917,0,0,0,.2-13.532,6.093,6.093,0,0,0-7.105-.885,7.941,7.941,0,0,0-4.354,7.048" transform="translate(-87.493 -145.713)" fill="#00ae83"/>
    <path id="Path_1529" data-name="Path 1529" d="M745.461,175.839a11.642,11.642,0,0,1,2.467-7.349c.275-.361.211-.526-.135-.752a13.953,13.953,0,0,0-3.491-1.56,1.46,1.46,0,0,1-1.13-1.713,1.493,1.493,0,0,1,1.913-1.181,13.9,13.9,0,0,1,4.988,2.386.808.808,0,0,0,1.052.084,9.571,9.571,0,0,1,11.956,2.233,11.691,11.691,0,0,1,2.865,7.958,11.35,11.35,0,0,1-5.177,9.7,9.463,9.463,0,0,1-10.135-.018,11.364,11.364,0,0,1-5.173-9.785m17.467.031a8.9,8.9,0,0,0-.9-4.027c-2.243-4.65-7.947-5.946-11.529-1.732a9.044,9.044,0,0,0-.188,11.209,6.537,6.537,0,0,0,9.711,1.1,8.411,8.411,0,0,0,2.906-6.546" transform="translate(-662.779 -145.572)" fill="#00ae83"/>
    <path id="Path_1530" data-name="Path 1530" d="M440.985,268.912a9.653,9.653,0,0,1-8.545-5.152,11.626,11.626,0,0,1,.067-12.332,9.564,9.564,0,0,1,8.676-5.05,9.423,9.423,0,0,1,7.3,3.548,11.531,11.531,0,0,1,2.792,7.384,11.36,11.36,0,0,1-6.591,10.878,8.508,8.508,0,0,1-3.695.726M433.8,257.1a9.316,9.316,0,0,0,1.473,5.524,6.71,6.71,0,0,0,11.367.214,9.1,9.1,0,0,0-.472-11,6.576,6.576,0,0,0-9.281-.953A8.363,8.363,0,0,0,433.8,257.1" transform="translate(-384.128 -219.734)" fill="#00ae83"/>
    <path id="Path_1531" data-name="Path 1531" d="M17.964,391.432H4.937A4.8,4.8,0,0,1,0,386.529a18.553,18.553,0,0,1,1.459-7.854c1.688-3.7,4.7-5.873,8.432-7.178.391-.136.785-.266,1.185-.374a1.512,1.512,0,1,1,.868,2.889,18.208,18.208,0,0,0-3.78,1.578,10.045,10.045,0,0,0-4.986,8.03,22.3,22.3,0,0,0-.126,2.858,1.835,1.835,0,0,0,1.9,1.969c.252.012.5,0,.757,0q12.837,0,25.674,0a1.568,1.568,0,0,1,1.493.681,1.482,1.482,0,0,1-1.29,2.3c-1.675.019-3.351.005-5.027.006H17.964" transform="translate(0 -330.922)" fill="#00ae83"/>
    <path id="Path_1532" data-name="Path 1532" d="M761.139,391.353q-6.729,0-13.459,0a1.472,1.472,0,0,1-1.514-2.061,1.373,1.373,0,0,1,1.234-.906,6.108,6.108,0,0,1,.648-.01q12.946,0,25.891,0a2.2,2.2,0,0,0,1.681-.588,1.484,1.484,0,0,0,.474-1,15.866,15.866,0,0,0-.975-6.63,9.974,9.974,0,0,0-5.712-5.44c-.728-.309-1.492-.533-2.239-.8a1.507,1.507,0,1,1,.855-2.887,15.829,15.829,0,0,1,7.277,4.054,13.17,13.17,0,0,1,3.528,7.272,15.766,15.766,0,0,1,.242,4.944,4.722,4.722,0,0,1-4.744,4.051q-6.595.006-13.189,0" transform="translate(-665.368 -330.845)" fill="#00ae83"/>
    <path id="Path_1533" data-name="Path 1533" d="M613.439,18.993a8.574,8.574,0,0,1-7.921-5.684,9.878,9.878,0,0,1,.921-9.355,8.119,8.119,0,0,1,12.688-1.592,10.1,10.1,0,0,1,.169,14.161,8.113,8.113,0,0,1-5.858,2.469m5.641-9.446a6.818,6.818,0,0,0-1.293-4.167,5.149,5.149,0,0,0-7.989-.8,7.156,7.156,0,0,0,.117,9.983,4.988,4.988,0,0,0,6.042.731,6.457,6.457,0,0,0,3.123-5.75" transform="translate(-539.359 0)" fill="#00ae83"/>
    <path id="Path_1534" data-name="Path 1534" d="M294.739,19.149c-2.455-.06-4.845-1.616-6.478-4.324a10.1,10.1,0,0,1,.623-11.248,8.207,8.207,0,0,1,13.651.513,10.108,10.108,0,0,1-1.429,12.826,8.388,8.388,0,0,1-6.367,2.234m-4.85-8.959a6.668,6.668,0,0,0,1.159,3.409,5.138,5.138,0,0,0,7.975,1.128,7.108,7.108,0,0,0,.21-9.933,5.066,5.066,0,0,0-7.388-.013,7.113,7.113,0,0,0-1.957,5.408" transform="translate(-255.824 -0.153)" fill="#00ae83"/>
    <path id="Path_1535" data-name="Path 1535" d="M540.889,168.753a1.748,1.748,0,0,1,.472-1.172A11.791,11.791,0,0,1,546.22,164a14.373,14.373,0,0,1,2.04-.7,1.506,1.506,0,1,1,.835,2.893,15.94,15.94,0,0,0-2.37.9,8.433,8.433,0,0,0-3.059,2.427,1.5,1.5,0,0,1-2.409.218,1.331,1.331,0,0,1-.369-.983" transform="translate(-482.396 -145.587)" fill="#00ae83"/>
    <path id="Path_1536" data-name="Path 1536" d="M426.635,163.164a13.518,13.518,0,0,1,7.25,4.372,1.856,1.856,0,0,1,.451.962,1.5,1.5,0,0,1-.914,1.564,1.479,1.479,0,0,1-1.815-.551,8.8,8.8,0,0,0-3.873-2.83c-.584-.234-1.191-.408-1.78-.631a1.465,1.465,0,0,1-.926-1.643,1.552,1.552,0,0,1,1.607-1.243" transform="translate(-379.041 -145.52)" fill="#00ae83"/>
  </g>
</svg>
