<svg class='stakes__icon' id='knowledge' viewBox="0 0 89.043 59.94"><defs><clipPath id="knowledge-a"><rect class="a" width="89.043" height="59.94"/></clipPath></defs><g class="b"><path class="a" d="M87.617,15.172,44.4.118a2.127,2.127,0,0,0-1.391,0L4.578,13.373a2.124,2.124,0,0,0,.007,4.019l9.8,3.342A25.086,25.086,0,0,0,9,33.12a4.406,4.406,0,0,0-2.845,4.056,4.452,4.452,0,0,0,3.464,4.255c-.755,1.887-1.84,4.448-3.053,6.83,0,0-2.363,3.4-3.923,2.742s-3.978,1.618-1.723,3.86c0,0,5.066,6.271,10.132,4.874,4.514-1.245,5.143-13.445,2.879-19.3a4.288,4.288,0,0,0,1.526-3.259,4.351,4.351,0,0,0-2.2-3.74c1.377-7.96,5.909-13.393,13.491-16.158A33.37,33.37,0,0,1,39.11,15.432a2.124,2.124,0,0,0,.328-4.236,37.154,37.154,0,0,0-14.009,2.04A27.007,27.007,0,0,0,17.8,17.409L11.818,15.37l31.883-11L80.026,17.027l-37.019,11.1L25.414,21.789a2.124,2.124,0,0,0-1.439,4l18.252,6.572a2.125,2.125,0,0,0,1.33.036L87.529,19.213a2.124,2.124,0,0,0,.089-4.041" transform="translate(0 0)"/><path class="a" d="M134.385,140.615a2.124,2.124,0,0,0-2.124,2.124v4.946c0,6.19,0,10.663-23.783,10.663-10.341,0-16.415-.833-19.116-2.621-1.879-1.244-1.962-2.967-1.962-6.437v-6.044a2.124,2.124,0,0,0-4.249,0v6.044c0,3.648,0,7.421,3.865,9.98,3.522,2.332,9.941,3.327,21.462,3.327,11.668,0,18.677-1.071,22.725-3.472,4.664-2.766,5.307-7.133,5.307-11.44v-4.946a2.124,2.124,0,0,0-2.124-2.124" transform="translate(-65.487 -110.744)"/></g></svg>

