<svg class='stakes__icon' id='tools' viewBox="0 0 80.495 80.508"><defs><clipPath id="tools-a"><rect class="a" width="80.495" height="80.508"/></clipPath></defs><g class="b"><path class="a" d="M65.3,80.507h-.017a7.285,7.285,0,0,1-5.18-2.159l-17.46-17.46A12.887,12.887,0,0,1,39.71,47.3L25.2,32.78H15.782L0,11.736,11.737,0,32.78,15.782V25.2L47.295,39.711a12.854,12.854,0,0,1,13.592,2.93L75.3,57.053v-.016l3.055,3.07a7.375,7.375,0,0,1,0,10.381l-7.893,7.893A7.275,7.275,0,0,1,65.3,80.507M17.57,29.2h9.108L44,46.532l-.568,1.149a9.308,9.308,0,0,0,1.741,10.682L62.634,75.822a3.736,3.736,0,0,0,2.657,1.109H65.3a3.733,3.733,0,0,0,2.65-1.094l.027-.027,7.847-7.847a3.791,3.791,0,0,0,.046-5.284L58.361,45.171a9.279,9.279,0,0,0-10.677-1.736l-1.151.571L29.2,26.677V17.57L12.072,4.72,4.721,12.071ZM12.022,80.393A11.345,11.345,0,0,1,3.861,61.188l.023-.024L27.875,37.158,38.12,47.4v.937l-.042.191a14.177,14.177,0,0,0,.662,8.306l.432,1.092L19.883,77.209a11.3,11.3,0,0,1-7.861,3.184M6.426,63.68A7.755,7.755,0,0,0,17.391,74.645L35.013,57.028a17.717,17.717,0,0,1-.615-8.292l-6.521-6.521ZM11.91,74.536H11.9a5.364,5.364,0,1,1,.005,0M11.9,67.377A1.791,1.791,0,1,0,13.7,69.164,1.793,1.793,0,0,0,11.9,67.377M65.481,45.55l-3.75-3.75a13.993,13.993,0,0,0-9.858-4.1H51.83a14.481,14.481,0,0,0-3.278.385l-.97.228L34.13,24.862l-.018-.714A23.026,23.026,0,0,1,40.775,7.392,23.4,23.4,0,0,1,62.848,1.268a3.588,3.588,0,0,1,1.692,6L54.085,17.723l1.324,7.958,7.958,1.324L73.813,16.56a3.572,3.572,0,0,1,6,1.648A23.348,23.348,0,0,1,73.683,40.3a22.811,22.811,0,0,1-7.09,4.777ZM51.873,34.126a17.589,17.589,0,0,1,12.39,5.15l2.006,2.006a19.236,19.236,0,0,0,4.894-3.521A19.753,19.753,0,0,0,76.34,19.078L64.595,30.835,52.3,28.789,50.256,16.5,62,4.749a19.781,19.781,0,0,0-18.7,5.168,19.437,19.437,0,0,0-5.626,13.439L48.726,34.4a18.091,18.091,0,0,1,3.1-.276h.051" transform="translate(0 0.001)"/></g></svg>