<svg id='leaves-2' viewBox="0 0 147.637 185.88"><defs><style>.a,.c{fill:none;}.b{clip-path:url(#leaves-2-a);}.c{stroke:inherit;stroke-linecap:round;stroke-linejoin:round;stroke-width:6px;}</style><clipPath id="leaves-2-a"><rect class="a" width="147.637" height="185.88"/></clipPath></defs><g class="b"><path class="c" d="M328.262,338.491c11.175,24.413-4.392,54.661-4.392,54.661s-35.992-6.646-47.167-31.059c-8.1-17.7-1.54-39.174,2.681-49.644h0l2.865-6.36S317.087,314.078,328.262,338.491Z" transform="translate(-263.177 -213.148)"/><path class="c" d="M50.641,348.131c-2.718-4.734-6.76-17.435-6.76-17.435s23.866-9.978,38.561-2.763c8.827,4.335,14.331,12.855,17.546,19.866a59.368,59.368,0,0,1,3.875,11.119,62.159,62.159,0,0,1-9.429,3.945c-7.927,2.619-19.478,4.789-29.161.034C58.681,359.661,53.951,353.9,50.641,348.131Z" transform="translate(-188.775 -172.509) rotate(-34)"/></g></svg>