<svg class='legal-update-icons' id='tools' viewBox="0 0 283 279"><defs><filter id="tools-a" x="0" y="0" width="106" height="106" filterUnits="userSpaceOnUse"><feOffset dy="3" input="SourceAlpha"/><feGaussianBlur stdDeviation="3" result="b"/><feFlood flood-opacity="0.161"/><feComposite operator="in" in2="b"/><feComposite in="SourceGraphic"/></filter></defs><g transform="translate(-6.032 6)"><circle class="a" cx="134" cy="134" r="134" transform="translate(21.032 5)"/><path class="b" d="M107.221,132.192h-.028a11.962,11.962,0,0,1-8.505-3.546L70.018,99.977A21.161,21.161,0,0,1,65.2,77.659L41.372,53.825H25.914L0,19.271,19.271,0,53.825,25.915V41.372L77.657,65.2a21.105,21.105,0,0,1,22.318,4.81l23.667,23.666v-.027l5.017,5.042a12.109,12.109,0,0,1,0,17.045L115.7,128.7a11.946,11.946,0,0,1-8.478,3.492M28.85,47.953H43.8L72.251,76.4l-.932,1.887a15.284,15.284,0,0,0,2.858,17.54L102.844,124.5a6.134,6.134,0,0,0,4.362,1.822h.014a6.129,6.129,0,0,0,4.352-1.8l.045-.045L124.5,111.595a6.225,6.225,0,0,0,.075-8.676L95.827,74.17A15.237,15.237,0,0,0,78.3,71.32l-1.889.938L47.954,43.8V28.85L19.822,7.751,7.751,19.822ZM19.74,132A18.629,18.629,0,0,1,6.34,100.47l.038-.039L45.771,61.013,62.591,77.832V79.37l-.069.313a23.279,23.279,0,0,0,1.087,13.639l.71,1.793L32.647,126.777A18.55,18.55,0,0,1,19.74,132m-9.189-27.443a12.734,12.734,0,0,0,18,18L57.49,93.639a29.091,29.091,0,0,1-1.01-13.615L45.772,69.317Zm9.005,17.825h-.009a8.808,8.808,0,1,1,.009,0m-.009-11.754a2.941,2.941,0,1,0,2.941,2.933,2.945,2.945,0,0,0-2.941-2.933m87.971-35.84-6.157-6.157a22.976,22.976,0,0,0-16.187-6.731H85.1a23.778,23.778,0,0,0-5.382.633l-1.592.375L56.041,40.824l-.03-1.172A37.808,37.808,0,0,1,66.952,12.138,38.416,38.416,0,0,1,103.2,2.082a5.892,5.892,0,0,1,2.778,9.852L88.806,29.1l2.175,13.067,13.067,2.174L121.2,27.192a5.865,5.865,0,0,1,9.844,2.705,38.336,38.336,0,0,1-10.057,36.268,37.455,37.455,0,0,1-11.641,7.843ZM85.173,56.034a28.881,28.881,0,0,1,20.344,8.456l3.294,3.294A31.586,31.586,0,0,0,116.847,62a32.435,32.435,0,0,0,8.5-30.675l-19.286,19.3L85.878,47.272,82.519,27.086,101.806,7.8a32.48,32.48,0,0,0-30.7,8.486,31.914,31.914,0,0,0-9.237,22.066L80.007,56.487a29.7,29.7,0,0,1,5.082-.453h.084" transform="translate(88.722 72.997)"/><g class="e" transform="matrix(1, 0, 0, 1, 6.03, -6)"><circle class="c" cx="44" cy="44" r="44" transform="translate(9 6)"/></g><text class="d" transform="translate(58.032 55)"><tspan x="-9.993" y="0">2</tspan></text></g></svg>