<svg xmlns="http://www.w3.org/2000/svg" xmlns:xlink="http://www.w3.org/1999/xlink" width="277" height="279" viewBox="0 0 277 279">
  <defs>
    <filter id="Ellipse_48" x="0" y="0" width="106" height="106" filterUnits="userSpaceOnUse">
      <feOffset dy="3" input="SourceAlpha"/>
      <feGaussianBlur stdDeviation="3" result="blur"/>
      <feFlood flood-opacity="0.161"/>
      <feComposite operator="in" in2="blur"/>
      <feComposite in="SourceGraphic"/>
    </filter>
  </defs>
  <g id="Group_252" data-name="Group 252" transform="translate(-12.063 6)">
    <circle id="Ellipse_45" data-name="Ellipse 45" cx="134" cy="134" r="134" transform="translate(21.063 5)" fill="#1d5b79"/>
    <g id="Confidence_Icon" data-name="Confidence Icon" transform="translate(91.75 57.453)">
      <path id="Path_1469" data-name="Path 1469" d="M44.725,263.131v22.983L5,294.684V280.028" transform="translate(-5 -152.512)" fill="none" stroke="#fff" stroke-linecap="round" stroke-linejoin="round" stroke-width="6"/>
      <path id="Path_1470" data-name="Path 1470" d="M5,211.9v-31.09l39.725,8.571v15.063" transform="translate(-5 -105.47)" fill="none" stroke="#fff" stroke-linecap="round" stroke-linejoin="round" stroke-width="6"/>
      <path id="Path_1471" data-name="Path 1471" d="M213.294,186.926H227.95a7.328,7.328,0,0,0,7.328-7.328v-1.109a7.328,7.328,0,0,0-7.328-7.328H195.367" transform="translate(-113.787 -99.954)" fill="none" stroke="#fff" stroke-linecap="round" stroke-linejoin="round" stroke-width="6"/>
      <path id="Path_1472" data-name="Path 1472" d="M229.55,223.715h15.966a7.328,7.328,0,0,0,7.328-7.328v-1.109a7.328,7.328,0,0,0-7.328-7.328H231.093" transform="translate(-133.322 -120.978)" fill="none" stroke="#fff" stroke-linecap="round" stroke-linejoin="round" stroke-width="6"/>
      <path id="Path_1473" data-name="Path 1473" d="M229.55,260.5h12.189a7.328,7.328,0,0,0,7.328-7.328v-1.109a7.328,7.328,0,0,0-7.328-7.328H232.25" transform="translate(-133.322 -142)" fill="none" stroke="#fff" stroke-linecap="round" stroke-linejoin="round" stroke-width="6"/>
      <path id="Path_1474" data-name="Path 1474" d="M192.8,297.289h24.048a7.328,7.328,0,0,0,7.328-7.328v-1.109a7.328,7.328,0,0,0-7.328-7.328h-8.3" transform="translate(-112.321 -163.023)" fill="none" stroke="#fff" stroke-linecap="round" stroke-linejoin="round" stroke-width="6"/>
      <line id="Line_30" data-name="Line 30" x2="7.706" transform="translate(58.631 134.266)" fill="none" stroke="#fff" stroke-linecap="round" stroke-linejoin="round" stroke-width="6"/>
      <path id="Path_1475" data-name="Path 1475" d="M97.7,306.223s5.076-2.175,9.256,0,3.664,4.628,16.2,4.628" transform="translate(-57.975 -176.585)" fill="none" stroke="#fff" stroke-linecap="round" stroke-linejoin="round" stroke-width="6"/>
      <path id="Path_1476" data-name="Path 1476" d="M140.742,103.542c5.845-11,7.01-14.347,7.01-14.347V73.382s0-7.52,8.485-7.52,13.885,11.763,12.92,21.984-5.006,23.141-5.006,23.141" transform="translate(-82.571 -39.78)" fill="none" stroke="#fff" stroke-linecap="round" stroke-linejoin="round" stroke-width="6"/>
      <path id="Path_1477" data-name="Path 1477" d="M97.7,188.427s5.274.6,12.177-9.287" transform="translate(-57.975 -104.514)" fill="none" stroke="#fff" stroke-linecap="round" stroke-linejoin="round" stroke-width="6"/>
      <line id="Line_31" data-name="Line 31" x2="10.724" transform="translate(24.319 52.164)" fill="none" stroke="#fff" stroke-linecap="round" stroke-linejoin="round" stroke-width="6"/>
      <line id="Line_32" data-name="Line 32" x2="7.583" y2="7.583" transform="translate(36.196 15.473)" fill="none" stroke="#fff" stroke-linecap="round" stroke-linejoin="round" stroke-width="6"/>
      <line id="Line_33" data-name="Line 33" y2="10.724" transform="translate(73.193 0)" fill="none" stroke="#fff" stroke-linecap="round" stroke-linejoin="round" stroke-width="6"/>
      <line id="Line_34" data-name="Line 34" x1="10.724" transform="translate(114.959 52.164)" fill="none" stroke="#fff" stroke-linecap="round" stroke-linejoin="round" stroke-width="6"/>
      <line id="Line_35" data-name="Line 35" x1="7.583" y2="7.583" transform="translate(101.937 15.473)" fill="none" stroke="#fff" stroke-linecap="round" stroke-linejoin="round" stroke-width="6"/>
      <line id="Line_36" data-name="Line 36" y2="21.775" transform="translate(11.828 86.972)" fill="none" stroke="#fff" stroke-linecap="round" stroke-linejoin="round" stroke-width="6"/>
      <line id="Line_37" data-name="Line 37" y2="11.151" transform="translate(11.828 120.318)" fill="none" stroke="#fff" stroke-linecap="round" stroke-linejoin="round" stroke-width="6"/>
    </g>
    <g transform="matrix(1, 0, 0, 1, 12.06, -6)" filter="url(#Ellipse_48)">
      <circle id="Ellipse_48-2" data-name="Ellipse 48" cx="44" cy="44" r="44" transform="translate(9 6)" fill="#f3aa60"/>
    </g>
    <text id="_3" data-name="3" transform="translate(64.063 55)" fill="#f4eb27" font-size="35" font-family="Poppins-Bold, Poppins" font-weight="700"><tspan x="-10.587" y="0">3</tspan></text>
  </g>
</svg>
