<svg class='legal-update-icons' id='docs' viewBox="0 0 318.365 409.438"><g transform="translate(1.911 1.911)"><path class="a" d="M323.58,203.4V438.575H72.064V411.881" transform="translate(-13.126 -37.048)"/><path class="a" d="M346.955,94.05h26.694v51.893" transform="translate(-63.195 -17.13)"/><path class="a" d="M136.782,452.041H39.425V423.886" transform="translate(-7.181 -77.207)"/><path class="a" d="M292.336,61.411h28.155V386.019H201.664" transform="translate(-36.731 -11.186)"/><rect class="a" width="83.258" height="38.562" transform="translate(45.689 4.089)"/><line class="a" x1="43.003" transform="translate(128.947 22.071)"/><path class="a" d="M5,300.448v51.146H182.184l74.332-74.332V26.986H200.071" transform="translate(-0.911 -4.915)"/><path class="a" d="M46.6,26.986H5V265.117" transform="translate(-0.911 -4.915)"/><path class="a" d="M221.644,407.332,295.976,333H221.644Z" transform="translate(-40.37 -60.653)"/><line class="a" x2="50.789" transform="translate(45.689 93.481)"/><line class="a" x2="97.162" transform="translate(116.352 93.481)"/><line class="a" x1="167.825" transform="translate(45.689 119.98)"/><line class="a" x1="50.789" transform="translate(162.724 144.25)"/><line class="a" x1="97.162" transform="translate(45.689 144.25)"/><line class="a" x1="167.825" transform="translate(45.689 170.748)"/><line class="a" x2="50.789" transform="translate(45.689 195.018)"/><line class="a" x2="97.162" transform="translate(116.352 195.018)"/><line class="a" x2="0.409" transform="translate(45.689 248.016)"/><line class="b" x2="13.107" transform="translate(70.674 248.016)"/><line class="a" x2="0.409" transform="translate(96.069 248.016)"/><line class="a" x2="29.811" transform="translate(116.352 248.016)"/><line class="a" x1="167.825" transform="translate(45.689 221.517)"/></g></svg>