<svg class='legal-update-icons' id='confidence' viewBox="0 0 277 279"><defs><filter id="confidence-a" x="0" y="0" width="106" height="106" filterUnits="userSpaceOnUse"><feOffset dy="3" input="SourceAlpha"/><feGaussianBlur stdDeviation="3" result="b"/><feFlood flood-opacity="0.161"/><feComposite operator="in" in2="b"/><feComposite in="SourceGraphic"/></filter></defs><g transform="translate(-12.063 6)"><circle class="a" cx="134" cy="134" r="134" transform="translate(21.063 5)"/><path class="b" d="M44.725,263.131v22.983L5,294.684V280.028" transform="translate(86.75 -95.059)"/><path class="b" d="M5,211.9v-31.09l39.725,8.571v15.063" transform="translate(86.75 -48.017)"/><path class="b" d="M213.294,186.926H227.95a7.328,7.328,0,0,0,7.328-7.328v-1.109a7.328,7.328,0,0,0-7.328-7.328H195.367" transform="translate(-22.037 -42.501)"/><path class="b" d="M229.55,223.715h15.966a7.328,7.328,0,0,0,7.328-7.328v-1.109a7.328,7.328,0,0,0-7.328-7.328H231.093" transform="translate(-41.571 -63.525)"/><path class="b" d="M229.55,260.5h12.189a7.328,7.328,0,0,0,7.328-7.328v-1.109a7.328,7.328,0,0,0-7.328-7.328H232.25" transform="translate(-41.571 -84.547)"/><path class="b" d="M192.8,297.289h24.048a7.328,7.328,0,0,0,7.328-7.328v-1.109a7.328,7.328,0,0,0-7.328-7.328h-8.3" transform="translate(-20.57 -105.57)"/><line class="b" x2="7.706" transform="translate(150.382 191.719)"/><path class="b" d="M97.7,306.223s5.076-2.175,9.256,0,3.664,4.628,16.2,4.628" transform="translate(33.776 -119.132)"/><path class="b" d="M140.742,103.542c5.845-11,7.01-14.347,7.01-14.347V73.382s0-7.52,8.485-7.52,13.885,11.763,12.92,21.984-5.006,23.141-5.006,23.141" transform="translate(9.179 17.673)"/><path class="b" d="M97.7,188.427s5.274.6,12.177-9.287" transform="translate(33.776 -47.061)"/><line class="b" x2="10.724" transform="translate(116.069 109.617)"/><line class="b" x2="7.583" y2="7.583" transform="translate(127.946 72.926)"/><line class="b" y2="10.724" transform="translate(164.943 57.453)"/><line class="b" x1="10.724" transform="translate(206.709 109.617)"/><line class="b" x1="7.583" y2="7.583" transform="translate(193.688 72.926)"/><line class="b" y2="21.775" transform="translate(103.578 144.425)"/><line class="b" y2="11.151" transform="translate(103.578 177.771)"/><g class="e" transform="matrix(1, 0, 0, 1, 12.06, -6)"><circle class="c" cx="44" cy="44" r="44" transform="translate(9 6)"/></g><text class="d" transform="translate(64.063 55)"><tspan x="-10.587" y="0">3</tspan></text></g></svg>