<svg id='hr-ministry-network-logo' viewBox="0 0 279.203 88.298"><defs><clipPath id="hr-ministry-network-logo-a"><rect class="a" width="279.203" height="88.298" transform="translate(0 0)"/></clipPath></defs><g class="b" transform="translate(0 0)"><path class="c" d="M48.617,42.514c-3.188-1.331-7.177.957-7.177.957l.284.851c.516,1.358,1.771,3.96,4.083,4.925,3.188,1.331,7.169-1.185,7.169-1.185s-1.171-4.217-4.359-5.548"/><path class="c" d="M54.382,42a11.852,11.852,0,0,0,3.891-1.22s-.911-4.281-4.012-5.8a7.053,7.053,0,0,0-4.389-.392,12.174,12.174,0,0,0-2.833.909l.232.867c.432,1.387,1.526,4.061,3.775,5.165A6.01,6.01,0,0,0,54.382,42"/><path class="c" d="M38.19,28.124a5.676,5.676,0,0,0-.546,2.028,11.274,11.274,0,0,0,1.038,5.2l.868-.229c1.388-.427,4.066-1.512,5.178-3.756,1.533-3.1-.72-7.231-.72-7.231s-4.284.9-5.818,3.992"/><path class="c" d="M31.288,57.274c1.043-2.278.2-5.04-.345-6.387l-.368-.819s-4.483,1.028-5.921,4.169.565,7.033.565,7.033,4.631-.855,6.069-4"/><path class="c" d="M56.6,44.859a8.118,8.118,0,0,0-1.406.049l-.032.615A5.893,5.893,0,0,0,56.53,49.7a5.328,5.328,0,0,0,3.856,1.148,7.667,7.667,0,0,0,1.025-.1s0-.024.006-.069c.034-.454.155-3.068-1.4-4.573A5.294,5.294,0,0,0,56.6,44.859"/><path class="c" d="M15.176,48.194a8.348,8.348,0,0,0,.71-1.648l.051-.571.109-.024s-.036-.018-.1-.048c-.525-.236-2.968-1.236-4.859-.308a5.174,5.174,0,0,0-2.257,2.556,7.676,7.676,0,0,0-.5,1.431,8.1,8.1,0,0,0,1.213.508,5.112,5.112,0,0,0,3.752,0,4.611,4.611,0,0,0,1.883-1.9"/><path class="c" d="M11.252,36.991a5.9,5.9,0,0,0,3.508-2.645l.325-.524s-2.305-2.161-4.647-1.776-3.791,3.019-3.791,3.019,2.263,2.311,4.605,1.926M9.3,34.306Z"/><path class="c" d="M19.921,22.978l.614-.061s.312-3.143-1.417-4.768-4.7-1.173-4.7-1.173-.458,3.2,1.272,4.827a5.894,5.894,0,0,0,4.234,1.175"/><path class="c" d="M25.068,18.071l.613-.061s.313-3.143-1.417-4.768-4.7-1.173-4.7-1.173-.458,3.2,1.272,4.827a5.894,5.894,0,0,0,4.234,1.175"/><path class="c" d="M11.32,39.975s2.655,3.889,6.11,3.933c2.5.032,4.689-1.858,5.7-2.9l.6-.668s-2.754-3.684-6.208-3.728-6.2,3.362-6.2,3.362"/><path class="c" d="M23.243,27.591c1.2,2.2,3.919,3.176,5.323,3.548l.876.194s1.86-4.206.2-7.238-5.972-3.757-5.972-3.757-2.087,4.221-.432,7.253"/><path class="c" d="M49.444,67.714a37.243,37.243,0,0,1,5.438.4,33.919,33.919,0,0,0,3.537-3.983,42.991,42.991,0,0,0-8.975-.941q-1.333,0-2.646.081-1.823.111-3.6.37-.906.132-1.8.3a37.306,37.306,0,0,0-.3-5.325c-.11-.631-.236-1.265-.382-1.9-.035-.159-.074-.319-.111-.478-.078-.32-.16-.639-.247-.96-.044-.16-.087-.32-.134-.481s-.086-.3-.132-.447c-.543-1.955-2.381-9.818,2.091-13.409,3.487-2.8,6.119-9.488,7.448-13.484l3.225-1.437c.235-.092.466-.2.695-.31l.011,0h0a5.884,5.884,0,0,0,2-1.583,6.21,6.21,0,0,0,1.19-3.5,11.979,11.979,0,0,0-.405-3.721h-.072a10.657,10.657,0,0,0-1.241.112,10.891,10.891,0,0,0-2.462.646A6.528,6.528,0,0,0,49.84,19.6c-2.138,2.713-1.006,7.171-1.006,7.171l.21.642c-1.907,3.546-5.432,9.208-9.782,12.125-5.936-5.914-4.394-14.393-2.68-19.434l.938-.219c1.448-.1,4.3-.561,5.888-2.5,2.189-2.672.92-7.207.92-7.207s-4.376-.088-6.564,2.584a8.066,8.066,0,0,0-1.358,5.594q-.417.638-.774,1.3a6.481,6.481,0,0,0-.671-3.487c-1.655-3.032-5.971-3.757-5.971-3.757s-2.087,4.221-.432,7.253c1.2,2.2,3.918,3.176,5.323,3.548l.189.2c-2.838,9.216.4,19.5.4,19.5Q33.819,42,33.1,41.088q-.36-.456-.737-.909c-.126-.151-.254-.3-.382-.453q-.366-.427-.748-.854-.635-.707-1.314-1.41c-.292-.3-.588-.6-.893-.9q-.76-.747-1.576-1.488-.311-.283-.632-.565c-.155-.138-.313-.275-.473-.413s-.3-.256-.451-.384q-.7-.59-1.43-1.173-1.372-1.089-2.88-2.159h0c-.3-1.028-1.469-4.4-4.124-5.592-3.15-1.418-7.029.609-7.029.609s.884,4.626,4.034,6.044c2.284,1.028,5.04.167,6.385-.385a.98.98,0,0,1,.981.216,51.367,51.367,0,0,1,10.478,15.3c-5.946-3.96-10.692-1.993-13.119-.331a5.2,5.2,0,0,0-1.553,1.205,5.916,5.916,0,0,0-.385.487,6.483,6.483,0,0,0-.439.716,8.563,8.563,0,0,0-.723,1.925c-.067.27-.122.535-.166.787s-.077.5-.1.729c-.018.165-.032.322-.042.466s-.018.3-.023.423l0,.126c-.007.318,0,.506,0,.506a10.015,10.015,0,0,0,1.057.18,10.57,10.57,0,0,0,3.857-.188,5.827,5.827,0,0,0,1.8-.8,4.845,4.845,0,0,0,.455-.351c1.884-1.651,2.245-4.518,2.3-5.969v-.668c6.949.055,9.168,6.2,9.849,9.351.229,1.164.287,1.823.287,1.823a47.666,47.666,0,0,1,.225,6.7q-.056,1.025-.172,1.956l.076-.018c-1.65.631-3.93,1.589-6.831,3.006q-1.572.906-3.032,1.942a35.763,35.763,0,0,0-3.644,2.936c1.462.978,2.918,1.854,4.3,2.628a33.521,33.521,0,0,1,11.584-6.577,36.706,36.706,0,0,1,11.57-1.847M33.769,20.756l.091-.086c.005.017.012.033.018.05Z"/><path class="c" d="M52.68,30.081l.252.563a5.891,5.891,0,0,0,3.124,3.09c2.269.695,4.82-1.294,4.82-1.294s-1.085-2.8-3.354-3.5-4.842,1.139-4.842,1.139"/><path class="c" d="M49.444,71.625a30.83,30.83,0,0,0-16.816,4.864A27.817,27.817,0,0,0,30.277,78.2c2.154,1.03,3.871,1.718,4.774,2.062a68.423,68.423,0,0,0,13.973-7.37q.881-.613,1.707-1.241c-.427-.016-.856-.026-1.287-.026"/><path class="c" d="M13.918,66.238C15.254,68.849,19.41,71.4,19.41,71.4a30.705,30.705,0,0,1,8.549-5.755c-8.819-2.458-14.041.594-14.041.594"/><path class="c" d="M45.2,20.2l.616-.01a5.891,5.891,0,0,0,4.072-1.652c1.533-1.812.711-4.941.711-4.941s-3.005-.108-4.537,1.7S45.2,20.195,45.2,20.2Z"/><path class="c" d="M172.607,76.266a2.721,2.721,0,0,0,2.634,0,2.4,2.4,0,0,0,.921-.971,3.36,3.36,0,0,0,0-2.929,2.415,2.415,0,0,0-.916-.967,2.74,2.74,0,0,0-2.644,0,2.408,2.408,0,0,0-.916.967,3.36,3.36,0,0,0,0,2.929,2.391,2.391,0,0,0,.921.971"/><path class="c" d="M260.776,73.377a1.313,1.313,0,0,0,.37-.976,1.246,1.246,0,0,0-.366-.962,1.592,1.592,0,0,0-1.117-.34h-1.34v2.644h1.34a1.523,1.523,0,0,0,1.113-.366"/><path class="c" d="M142.9,72.366a3.36,3.36,0,0,0,0,2.929,2.392,2.392,0,0,0,.921.971,2.714,2.714,0,0,0,2.634,0,2.379,2.379,0,0,0,.921-.971,3.36,3.36,0,0,0,0-2.929,2.412,2.412,0,0,0-.916-.966,2.733,2.733,0,0,0-2.644,0,2.419,2.419,0,0,0-.916.966"/><path class="c" d="M133.867,71.089H132.6v5.488h1.262a2.784,2.784,0,0,0,2.063-.716,2.726,2.726,0,0,0,.711-2.008,2.782,2.782,0,0,0-.716-2.033,2.752,2.752,0,0,0-2.058-.731"/><path class="c" d="M81.093,75.035h2.524L82.355,71.51Z"/><path class="c" d="M154.8,26.091a3.414,3.414,0,0,1,.844-2.473,3.531,3.531,0,0,1,4.649,0,3.414,3.414,0,0,1,.844,2.473v8.973h5.034V26.091a3.419,3.419,0,0,1,.844-2.473,3.531,3.531,0,0,1,4.649,0,3.414,3.414,0,0,1,.844,2.473v8.973h5.034V25.41a7.1,7.1,0,0,0-1.821-5.182,6.534,6.534,0,0,0-4.9-1.866,6.322,6.322,0,0,0-3.227.859,6.66,6.66,0,0,0-2.34,2.221,5.728,5.728,0,0,0-2.295-2.28,6.841,6.841,0,0,0-3.331-.8,6.337,6.337,0,0,0-2.813.607,5.424,5.424,0,0,0-2.014,1.644V18.54h-5.064V35.064H154.8Z"/><path class="c" d="M183.639,17.407a3.025,3.025,0,0,0,2.147-.785,2.54,2.54,0,0,0,.844-1.939,2.577,2.577,0,0,0-.844-1.97,3.033,3.033,0,0,0-2.147-.784,3.072,3.072,0,0,0-2.176.784,2.577,2.577,0,0,0-.844,1.97,2.54,2.54,0,0,0,.844,1.939,3.064,3.064,0,0,0,2.176.785"/><rect class="c" width="5.064" height="16.524" transform="translate(181.287 18.54)"/><path class="c" d="M195.087,26.091a3.624,3.624,0,0,1,.859-2.576,3.364,3.364,0,0,1,4.619,0,3.624,3.624,0,0,1,.859,2.576v8.973h5.034V25.41a7.332,7.332,0,0,0-1.732-5.167,6,6,0,0,0-4.634-1.881A6.6,6.6,0,0,0,197.16,19a5.346,5.346,0,0,0-2.073,1.732V18.54h-5.064V35.064h5.064Z"/><path class="c" d="M212.529,17.407a3.025,3.025,0,0,0,2.147-.785,2.54,2.54,0,0,0,.844-1.939,2.577,2.577,0,0,0-.844-1.97,3.033,3.033,0,0,0-2.147-.784,3.072,3.072,0,0,0-2.176.784,2.577,2.577,0,0,0-.844,1.97,2.54,2.54,0,0,0,.844,1.939,3.064,3.064,0,0,0,2.176.785"/><rect class="c" width="5.064" height="16.524" transform="translate(209.982 18.54)"/><path class="c" d="M226.846,31.2a2.493,2.493,0,0,1-1.466.37,2.831,2.831,0,0,1-1.747-.533,1.925,1.925,0,0,1-.8-1.392h-5a5.335,5.335,0,0,0,1.1,2.888,6.567,6.567,0,0,0,2.665,2.028,9.486,9.486,0,0,0,3.849.74,8.953,8.953,0,0,0,3.539-.651,5.384,5.384,0,0,0,2.34-1.792,4.349,4.349,0,0,0,.814-2.591,4.194,4.194,0,0,0-.9-2.739,5.176,5.176,0,0,0-2.029-1.481,26,26,0,0,0-2.991-.932,12.1,12.1,0,0,1-2.354-.711,1.139,1.139,0,0,1-.755-1.066,1.087,1.087,0,0,1,.474-.933,2.311,2.311,0,0,1,1.362-.341,2.618,2.618,0,0,1,1.673.5,2.02,2.02,0,0,1,.755,1.362h4.679a5.991,5.991,0,0,0-2.058-4.086,7.271,7.271,0,0,0-4.9-1.54,8.848,8.848,0,0,0-3.628.681,5.277,5.277,0,0,0-2.309,1.851,4.544,4.544,0,0,0-.785,2.591,3.954,3.954,0,0,0,.859,2.68,5.113,5.113,0,0,0,2.043,1.451,22.455,22.455,0,0,0,2.961.873,15.138,15.138,0,0,1,2.4.755,1.112,1.112,0,0,1,.74,1.052,1.134,1.134,0,0,1-.518.962"/><path class="c" d="M236.041,29.319q0,3.051,1.54,4.4a6.3,6.3,0,0,0,4.294,1.348h2.576V30.77h-1.806a1.731,1.731,0,0,1-1.185-.326,1.386,1.386,0,0,1-.355-1.066V22.745h3.316v-4.2H241.1V14.513h-5.064V18.54h-2.014v4.2h2.014Z"/><path class="c" d="M149.1,49.859a3.624,3.624,0,0,1,.859-2.576,3.364,3.364,0,0,1,4.619,0,3.624,3.624,0,0,1,.859,2.576v8.973h5.034V49.178a7.337,7.337,0,0,0-1.732-5.168,6,6,0,0,0-4.634-1.88,6.6,6.6,0,0,0-2.932.637A5.346,5.346,0,0,0,149.1,44.5V42.308H144.04V58.832H149.1Z"/><path class="c" d="M175.8,43.078a9.593,9.593,0,0,0-8.617.03,7.276,7.276,0,0,0-2.947,2.961,9.247,9.247,0,0,0-1.051,4.5,9.147,9.147,0,0,0,1.066,4.5,7.37,7.37,0,0,0,2.962,2.962,8.859,8.859,0,0,0,4.323,1.036,8.712,8.712,0,0,0,3.642-.74,7.493,7.493,0,0,0,2.71-2.044,7.389,7.389,0,0,0,1.495-2.931H174a2.662,2.662,0,0,1-2.636,1.6,3.026,3.026,0,0,1-2.147-.815,3.442,3.442,0,0,1-.992-2.354h11.46a12.751,12.751,0,0,0,.089-1.48,8.713,8.713,0,0,0-1.051-4.353,7.227,7.227,0,0,0-2.917-2.873m-7.551,5.893a3.282,3.282,0,0,1,1.081-2.1,3.2,3.2,0,0,1,2.147-.741,3.274,3.274,0,0,1,2.221.77,2.606,2.606,0,0,1,.888,2.073Z"/><path class="c" d="M183.234,38.281v4.027H181.22v4.205h2.014v6.574q0,3.051,1.54,4.4a6.307,6.307,0,0,0,4.294,1.347h2.576V54.538h-1.806a1.737,1.737,0,0,1-1.185-.325,1.389,1.389,0,0,1-.355-1.067V46.513h3.316V42.308H188.3V38.281Z"/><path class="c" d="M200.338,54.124,198,42.309h-5.064l4.5,16.523H203L205.7,48.113,208.3,58.832h5.6l4.471-16.523H213.6l-2.31,11.756-2.813-11.756h-5.36Z"/><path class="c" d="M223.534,43.108a7.633,7.633,0,0,0-3.079,2.976,9.585,9.585,0,0,0-.015,8.987,7.576,7.576,0,0,0,3.05,2.961,9.109,9.109,0,0,0,4.368,1.037,9.284,9.284,0,0,0,4.4-1.037,7.7,7.7,0,0,0,3.11-2.976,9.447,9.447,0,0,0,.014-8.972,7.633,7.633,0,0,0-3.079-2.976,9.781,9.781,0,0,0-8.766,0m7.818,7.462a4.231,4.231,0,0,1-1.022,3.05,3.3,3.3,0,0,1-2.472,1.066,3.115,3.115,0,0,1-2.414-1.066,4.4,4.4,0,0,1-.962-3.05,4.349,4.349,0,0,1,.977-3.065,3.366,3.366,0,0,1,4.9.015,4.317,4.317,0,0,1,.992,3.05"/><path class="c" d="M244.418,42.33h-5.064v16.7h5.064l.126-8.046c3.3-2.046,5.494-1.461,5.494-1.461V42.071a7.65,7.65,0,0,0-3.4,1.039,6.681,6.681,0,0,0-2.221,2.147Z"/><path class="c" d="M252.142,59.027h5.085V52.12l5.085,6.907h6.325l-7.2-8.835S272.949,32.658,279.2,18.54h-5.962l-3.8,8.741-4.734-8.741h-6.636L264.794,34.5l-7.567,12.827v-9.7a18.164,18.164,0,0,1-4.9-1.3V30.086a3.884,3.884,0,0,1,.948-2.965,4.266,4.266,0,0,1,2.843-.815h1.392V18.363a5.732,5.732,0,0,0-2.962.784,6.7,6.7,0,0,0-2.221,2.147V18.54h-5.063V35.064l4.7,1.361Z"/><path class="c" d="M87.734,43.16h16.131V60.712H114.5V28.1H103.865v5.783H87.734V11.15H76.98V60.712H87.734Z"/><path class="c" d="M129.815,43.159s10.2-1.345,10.2-11.826a13.368,13.368,0,0,0-9.426-13.03,39.819,39.819,0,0,0-11.647-1.409c-7.481,0-15.079.123-15.079.123v8.627h19.521s6.546.156,6.546,5.689-6.078,5.415-6.078,5.415h-7.6v7.4h2.688l12.511,24.268H64.262c.1-.133.2-.266.293-.4A27.876,27.876,0,0,0,70.1,51.6V6.573H67.776A89.69,89.69,0,0,1,44.1,3.591,40.06,40.06,0,0,1,36.2.612L35.132,0l-1.1.541a55.978,55.978,0,0,1-8.667,3.02A88.616,88.616,0,0,1,2.327,6.573H0V51.6A27.876,27.876,0,0,0,5.548,68.017,48.05,48.05,0,0,0,17.362,79.265,76.352,76.352,0,0,0,34.3,88.039l.755.259.754-.259a76.329,76.329,0,0,0,16.935-8.774c.041-.028.08-.057.12-.085H278.034V68.417H143.669Zm-94.763,40.2a74.019,74.019,0,0,1-15.119-7.975A43.273,43.273,0,0,1,9.3,65.267,23.3,23.3,0,0,1,4.654,51.6V11.2A93.317,93.317,0,0,0,26.738,8.011a66.863,66.863,0,0,0,8.248-2.8A50.174,50.174,0,0,0,42.607,8a90.1,90.1,0,0,0,22.842,3.2V51.6A23.3,23.3,0,0,1,60.8,65.267,43.285,43.285,0,0,1,50.171,75.384a74.019,74.019,0,0,1-15.119,7.975m49.386-6.032-.561-1.552H80.833l-.561,1.552h-.961l2.523-6.939h1.052L85.4,77.327Zm14.931,0L96.5,74.143v3.184h-.911V70.348H96.5v3.234l2.884-3.234h1.152l-3.165,3.494,3.195,3.485Zm6.329,0h-.911v-6.98h.911Zm10.244,0h-.911l-3.665-5.558v5.558h-.911v-6.99h.911l3.665,5.548V70.337h.911Zm11.346-3.064a3.459,3.459,0,0,1-.54,1.577,3.343,3.343,0,0,1-1.212,1.132,3.4,3.4,0,0,1-1.672.416,3.521,3.521,0,0,1-1.773-.456,3.351,3.351,0,0,1-1.267-1.267,3.853,3.853,0,0,1,0-3.67,3.343,3.343,0,0,1,1.267-1.272,3.521,3.521,0,0,1,1.773-.456,3.557,3.557,0,0,1,1.967.551,3.15,3.15,0,0,1,1.247,1.552h-1.092a2.169,2.169,0,0,0-.841-.946,2.409,2.409,0,0,0-1.281-.335,2.6,2.6,0,0,0-1.317.335,2.374,2.374,0,0,0-.922.961,3.027,3.027,0,0,0-.335,1.447,2.99,2.99,0,0,0,.335,1.442,2.376,2.376,0,0,0,.922.957,2.6,2.6,0,0,0,1.317.335,2.38,2.38,0,0,0,1.682-.611,2.524,2.524,0,0,0,.771-1.652h-2.784v-.741h3.755Zm9.839,1.447a2.937,2.937,0,0,1-1.282,1.2,4.393,4.393,0,0,1-1.977.415H131.7V70.348h2.173a4.3,4.3,0,0,1,1.977.425,2.993,2.993,0,0,1,1.282,1.217,4.1,4.1,0,0,1,0,3.72m130.008-5.362,1.722,3.535,1.723-3.535h1.011l-2.273,4.346v2.633h-.911V74.694l-2.284-4.346Zm-9.724,0h2.253a2.994,2.994,0,0,1,1.337.27,1.879,1.879,0,0,1,.816.731,2.032,2.032,0,0,1,.271,1.051,2.054,2.054,0,0,1-.416,1.272,2.029,2.029,0,0,1-1.246.731l1.752,2.924h-1.092l-1.662-2.854h-1.1v2.854h-.912Zm-9.052,0h4.726v.741h-1.9v6.238h-.912V71.089h-1.912ZM243.1,74.814a1.406,1.406,0,0,0-.551-.381,8.737,8.737,0,0,0-.891-.28,7.686,7.686,0,0,1-1.106-.361,1.766,1.766,0,0,1-.711-.565,1.663,1.663,0,0,1-.3-1.037,1.794,1.794,0,0,1,.291-1.011,1.882,1.882,0,0,1,.816-.681,2.857,2.857,0,0,1,1.206-.241,2.53,2.53,0,0,1,1.608.491,1.815,1.815,0,0,1,.706,1.3h-1a1.079,1.079,0,0,0-.42-.706,1.494,1.494,0,0,0-.982-.306,1.421,1.421,0,0,0-.931.3,1.01,1.01,0,0,0-.361.826.893.893,0,0,0,.216.621,1.376,1.376,0,0,0,.531.365,9.261,9.261,0,0,0,.886.286,8.429,8.429,0,0,1,1.111.375,1.853,1.853,0,0,1,.721.571,1.656,1.656,0,0,1,.3,1.047,1.83,1.83,0,0,1-.271.961,1.981,1.981,0,0,1-.8.731,2.643,2.643,0,0,1-1.252.28,2.978,2.978,0,0,1-1.236-.245,2.044,2.044,0,0,1-.856-.681,1.746,1.746,0,0,1-.321-1.006h.971a1.283,1.283,0,0,0,.406.826,1.453,1.453,0,0,0,1.036.335,1.515,1.515,0,0,0,1.027-.325,1.057,1.057,0,0,0,.375-.836.949.949,0,0,0-.22-.651m-9.062-4.466h.911v6.98h-.911Zm-10.245-.011h.911l3.666,5.548V70.337h.911v6.99h-.911l-3.666-5.558v5.558h-.911Zm-5.668.011h.911v6.98h-.911ZM206.3,70.4h.981l2.564,5.728,2.563-5.728h.972v6.929h-.912V72.16l-2.3,5.167h-.641l-2.313-5.177v5.177H206.3Zm-14.22-.061h3.755v.752h-2.844v2.333h2.544v.751h-2.544v2.4h2.844v.751H192.08Zm-10.245,0h.912l3.665,5.548V70.337h.911v6.99h-.911l-3.665-5.558v5.558h-.912ZM170.885,72a3.33,3.33,0,0,1,1.267-1.272,3.692,3.692,0,0,1,3.555,0,3.308,3.308,0,0,1,1.261,1.267,3.913,3.913,0,0,1,0,3.685,3.308,3.308,0,0,1-1.261,1.267,3.7,3.7,0,0,1-3.555,0,3.33,3.33,0,0,1-1.267-1.272,3.856,3.856,0,0,1,0-3.675m-17.83-1.6h.981l2.564,5.728,2.563-5.728h.972v6.929h-.912V72.16l-2.3,5.167h-.641l-2.313-5.177v5.177h-.911Zm-6.129.325a3.311,3.311,0,0,1,1.262,1.267,3.92,3.92,0,0,1,0,3.685,3.311,3.311,0,0,1-1.262,1.267,3.7,3.7,0,0,1-3.555,0A3.343,3.343,0,0,1,142.1,75.67a3.863,3.863,0,0,1,0-3.675,3.343,3.343,0,0,1,1.267-1.272,3.692,3.692,0,0,1,3.555,0"/></g></svg>