<svg id='spark-icon' width="108.463" height="93.854" viewBox="0 0 108.463 93.854"><g transform="translate(-1404.469 -7776.499)"><path class="a" d="M94.317,64.927,79.441,60.959,90.327,50.074a5.255,5.255,0,1,0-7.432-7.432L72.007,53.53l-3.97-14.882a5.256,5.256,0,1,0-10.156,2.709L61.859,56.27,46.946,52.292a5.256,5.256,0,0,0-2.709,10.156l14.881,3.97L48.23,77.307a5.255,5.255,0,0,0,7.432,7.432L66.548,73.852l3.968,14.876a5.256,5.256,0,0,0,10.156-2.709L76.695,71.106l14.912,3.978a5.256,5.256,0,1,0,2.709-10.156" transform="matrix(0.966, 0.259, -0.259, 0.966, 1400.064, 7744.383)"/><path class="b" d="M46.814,16.3l-2.636-.7,1.929-1.929a.931.931,0,0,0-1.317-1.317l-1.929,1.929-.7-2.636a.931.931,0,1,0-1.8.48l.7,2.642-2.642-.7a.931.931,0,1,0-.48,1.8l2.637.7-1.93,1.93a.931.931,0,1,0,1.317,1.317l1.929-1.929.7,2.636a.931.931,0,1,0,1.8-.48l-.7-2.642,2.642.7a.931.931,0,0,0,.48-1.8" transform="matrix(0.966, 0.259, -0.259, 0.966, 1398.475, 7756.275)"/><path class="b" d="M211.1,77.522l-2.636-.7L210.4,74.89a.931.931,0,1,0-1.317-1.317L207.15,75.5l-.7-2.636a.931.931,0,0,0-1.8.48l.7,2.642-2.642-.7a.931.931,0,1,0-.48,1.8l2.637.7-1.93,1.93a.931.931,0,0,0,1.317,1.317l1.929-1.929.7,2.636a.931.931,0,0,0,1.8-.48l-.7-2.642,2.642.7a.931.931,0,1,0,.48-1.8" transform="matrix(0.966, 0.259, -0.259, 0.966, 1327.034, 7705.436)"/><path class="c" d="M130.974,5.71l-2.815-.751,2.06-2.059a.995.995,0,1,0-1.407-1.407l-2.06,2.06L126,.738a.995.995,0,0,0-1.922.512l.753,2.822-2.822-.753a.995.995,0,0,0-.512,1.922l2.816.751-2.06,2.06a.994.994,0,0,0,1.406,1.406l2.06-2.06.751,2.815a.994.994,0,1,0,1.922-.512l-.752-2.822,2.822.753a.995.995,0,0,0,.512-1.922" transform="matrix(0.966, 0.259, -0.259, 0.966, 1356.715, 7750.759)"/><path class="d" d="M177.9,73.466l-4.469-1.192L176.7,69a1.579,1.579,0,1,0-2.233-2.232l-3.271,3.271L170,65.571a1.579,1.579,0,0,0-3.051.814l1.2,4.48-4.48-1.2a1.579,1.579,0,0,0-.814,3.051l4.471,1.193-3.271,3.271a1.579,1.579,0,0,0,2.232,2.232l3.271-3.27,1.192,4.469A1.579,1.579,0,0,0,173.8,79.8l-1.2-4.48,4.48,1.195a1.579,1.579,0,0,0,.814-3.051" transform="matrix(0.966, 0.259, -0.259, 0.966, 1345.283, 7714.352)"/><path class="c" d="M16.217,56.072,11.748,54.88l3.27-3.27a1.579,1.579,0,1,0-2.233-2.232L9.515,52.648,8.322,48.177a1.579,1.579,0,0,0-3.051.814l1.2,4.48-4.48-1.2a1.579,1.579,0,0,0-.814,3.051L5.643,56.52,2.372,59.791A1.579,1.579,0,0,0,4.6,62.024l3.271-3.27,1.192,4.469a1.579,1.579,0,0,0,3.051-.814l-1.195-4.48,4.48,1.195a1.579,1.579,0,0,0,.814-3.051" transform="matrix(0.966, 0.259, -0.259, 0.966, 1421.136, 7743.683)"/><path class="c" d="M145.047,152.246l-3.524-.94,2.578-2.578a1.245,1.245,0,1,0-1.76-1.76l-2.579,2.578-.94-3.525a1.245,1.245,0,1,0-2.405.642l.942,3.532-3.532-.942a1.245,1.245,0,1,0-.641,2.405l3.525.94-2.579,2.579a1.245,1.245,0,0,0,1.76,1.76l2.578-2.578.94,3.523a1.245,1.245,0,1,0,2.405-.641l-.942-3.532,3.532.942a1.245,1.245,0,1,0,.642-2.406" transform="matrix(0.966, 0.259, -0.259, 0.966, 1369.94, 7679.176)"/></g></svg>