<svg class='three-steps-svg' id='build-step-3' viewBox="0 0 328.387 332.324"><defs><clipPath id="build-step-3-a"><rect class="a" width="285.486" height="283.893"/></clipPath><filter id="build-step-3-e" x="0" y="0" width="104" height="104" filterUnits="userSpaceOnUse"><feOffset dy="3" input="SourceAlpha"/><feGaussianBlur stdDeviation="3" result="f"/><feFlood flood-opacity="0.161"/><feComposite operator="in" in2="f"/><feComposite in="SourceGraphic"/></filter></defs><g transform="translate(42.901 48.431)"><g class="b"><rect class="c" width="48.248" height="26.386" transform="translate(4.029 140.396)"/></g><rect class="c" width="48.248" height="26.386" transform="translate(67.355 140.396)"/><rect class="c" width="48.248" height="26.386" transform="translate(130.681 140.396)"/><g class="b"><rect class="c" width="48.248" height="26.386" transform="translate(4.029 215.784)"/></g><rect class="c" width="48.248" height="26.386" transform="translate(67.355 215.784)"/><rect class="c" width="48.248" height="26.386" transform="translate(130.681 215.784)"/><rect class="c" width="48.248" height="26.386" transform="translate(194.007 215.784)"/><g class="b"><rect class="c" width="26.386" height="26.386" transform="translate(4.029 178.09)"/></g><rect class="c" width="48.248" height="26.386" transform="translate(43.231 178.09)"/><rect class="c" width="48.248" height="26.386" transform="translate(106.557 178.09)"/><rect class="c" width="48.248" height="26.386" transform="translate(169.883 178.09)"/><g class="b"><rect class="c" width="26.386" height="26.386" transform="translate(4.029 253.478)"/><rect class="c" width="48.248" height="26.386" transform="translate(43.231 253.478)"/><rect class="c" width="48.248" height="26.386" transform="translate(106.557 253.478)"/><rect class="c" width="48.248" height="26.386" transform="translate(169.883 253.478)"/><rect class="c" width="48.248" height="26.386" transform="translate(233.208 253.478)"/><path class="c" d="M486.124,226.916l-62.51-126.2-18.1,18.1s32.429,24.811,14.881,42.36c-18.355,18.355-41.717-15.524-41.717-15.524l-18.748,18.748Z" transform="translate(-214.896 -60.134)"/><line class="c" x1="16.698" y1="16.698" transform="translate(174.188 70.548)"/><rect class="c" width="24.878" height="68.226" transform="translate(107.67 21.621) rotate(-45)"/></g><g transform="translate(-394.901 -4833.431)"><g class="f" transform="matrix(1, 0, 0, 1, 352, 4785)"><circle class="d" cx="43" cy="43" r="43" transform="translate(9 6)"/></g><text class="e" transform="translate(404 4846)"><tspan x="-9.983" y="0">3</tspan></text></g></g></svg>