<svg class="k1-icon staffing-icon" id='onboarding' viewBox="0 0 122.098 107.119"><g transform="translate(-3.701 10.805)"><path class="a" d="M178.169,221.848v17.3a9.318,9.318,0,0,1-9.291,9.291H96.8a9.318,9.318,0,0,1-9.291-9.291V201.945a9.318,9.318,0,0,1,9.291-9.291H144.63" transform="translate(-73.009 -179.17)"/><path class="a" d="M124.261,163.489v19.889a15.338,15.338,0,0,1-15.293,15.293H30.293A15.338,15.338,0,0,1,15,183.378V141a15.338,15.338,0,0,1,15.293-15.293H81.618" transform="translate(-9.799 -120.811)"/><rect class="b" width="43.233" height="43.233" rx="12" transform="translate(81.066 -9.305)"/><path class="a" d="M694.982,101.773l9.2,9.438,11.8-22.224" transform="translate(-602.554 -88.8)"/><path class="a" d="M334.813,533.391v-5.836a6.011,6.011,0,0,0-6.011-6.011h-3.717a14.064,14.064,0,0,1-16.823,0h-3.5v.025c-.177-.016-.356-.025-.537-.025a6.011,6.011,0,0,0-6.011,6.011v5.836" transform="translate(-256.681 -465.871)"/><circle class="a" cx="9.338" cy="9.338" r="9.338" transform="translate(46.786 41.378) rotate(-45)"/><rect class="a" width="20.044" height="10.54" transform="translate(49.809 77.86)"/><rect class="a" width="85.548" height="6.414" transform="translate(17.057 88.4)"/></g></svg>