<svg class='staffing-icon' id='frustrated' viewBox="0 0 303.517 290.199"><g transform="translate(-809.001 -2814.001)"><path class="a" d="M226.259,239.621a46.486,46.486,0,0,0-17.026-18.873,43.987,43.987,0,0,0-13.75-5.477c-8.214-1.894-15.525-1.375-22.345,1.589a49.6,49.6,0,0,1-20.948,3.764,51.536,51.536,0,0,1-20.27-4.309,24.048,24.048,0,0,0-8.4-2.048A44.263,44.263,0,0,0,90.368,225.86c-9.634,8.579-14.636,19.767-14.865,33.253-.092,5.472-.075,11.028-.059,16.4.011,4.154.024,8.451-.014,12.67l-.018,2.017h9.483l2.478-.065-.542-2.436a1.1,1.1,0,0,1-.011-.2c.013-3.647.006-7.3,0-10.944-.009-5.4-.018-10.981.039-16.464.081-7.705,1.652-13.623,4.946-18.624,6.37-9.672,14.921-14.811,26.141-15.708a26.469,26.469,0,0,1,11.993,1.929,62.794,62.794,0,0,0,27.1,4.305,58.675,58.675,0,0,0,19.66-4.4,24.784,24.784,0,0,1,11.376-1.853c9.891.479,17.954,4.823,24.647,13.282a30.889,30.889,0,0,1,6.572,19.283c.069,5.838.06,11.783.051,17.532-.006,3.915-.012,7.83.006,11.744a.885.885,0,0,1-.014.194l-.524,2.424h11.88l0-11.107q-.008-10.281.013-20.563a41.643,41.643,0,0,0-4.439-18.909" transform="translate(809 2814)"/><path class="a" d="M198.415,287.527c.039-8.805.037-17.47.031-26.311a20.274,20.274,0,0,0-.19-2.754,5.58,5.58,0,0,0-5.154-4.855,5.8,5.8,0,0,0-5.881,4.029,8.668,8.668,0,0,0-.314,2.7l.017,26.921c0,.33,0,.576-.016.773l-.184,2.17h9.753l2.441-.039-.49-2.4a1.185,1.185,0,0,1-.013-.233" transform="translate(809 2814)"/><path class="a" d="M119.331,287.527c.039-8.805.037-17.47.031-26.311a20.276,20.276,0,0,0-.19-2.754,5.58,5.58,0,0,0-5.154-4.855,5.8,5.8,0,0,0-5.881,4.029,8.668,8.668,0,0,0-.314,2.7l.017,26.921c0,.33,0,.576-.016.773l-.184,2.17h9.753l2.441-.039-.49-2.4a1.184,1.184,0,0,1-.013-.233" transform="translate(809 2814)"/><path class="a" d="M121.024,198.338a44.931,44.931,0,0,0,32.109,13.516h.006A45.2,45.2,0,0,0,185,134.538a44.622,44.622,0,0,0-31.7-13.244h-.292a45.2,45.2,0,0,0-31.988,77.043m8.229-55.765a33.069,33.069,0,0,1,23.688-9.8l.322,0c19.059.175,33.545,14.732,33.693,33.862a32.942,32.942,0,0,1-9.85,23.659,33.946,33.946,0,0,1-23.778,10.061h-.236a33.89,33.89,0,0,1-23.839-57.786" transform="translate(809 2814)"/><path class="a" d="M42.406,128.853c-.782.138-1.552.343-2.324.53A19.792,19.792,0,0,1,16.318,115c-1.452-5.816-.2-11.087,2.959-16.1,2.3-3.655,1.884-5.742-1.469-8.6A19.507,19.507,0,0,1,18.26,60c6.868-5.561,15.566-5.613,23.577-.482,2.889,1.851,5.363,1.552,7.726-.921.55-.574,1.125-1.121,1.684-1.685,5.193-5.234,11.5-7.337,18.6-5.554,7.372,1.85,12.474,6.5,14.478,14.106a45.6,45.6,0,0,1,.693,5.083,4.909,4.909,0,0,0,4.531,4.323c3.7.371,6.281-1.9,6.133-5.777A29.192,29.192,0,0,0,85.679,47.758c-10.191-9.086-25.5-10.407-36.762-2.8-3.623,2.446-6.315,2.609-10.3,1.375A29.858,29.858,0,0,0,.061,73.193,31.324,31.324,0,0,0,7.044,94.88a2.568,2.568,0,0,1,.388,3.093c-5.732,12.75-.882,29.434,9.282,36.362a24.922,24.922,0,0,0,7.6,4.24c7.019,2.511,14.1,3.033,21.144.157,2.861-1.169,3.812-3.649,2.843-6.618-.891-2.73-2.821-3.807-5.9-3.261" transform="translate(809 2814)"/><path class="a" d="M297.02,94.367c9.532-12.538,8.472-29.225-2.5-40.138a29.937,29.937,0,0,0-33.485-5.592,2.164,2.164,0,0,1-2.724-.426c-16.037-13.3-43.165-6.586-48.258,16.689-.539,2.463-1.068,4.967-.357,7.5a5.018,5.018,0,0,0,5.23,3.585,4.825,4.825,0,0,0,4.578-3.9c.218-1.121.284-2.27.449-3.4a19.174,19.174,0,0,1,23.357-16.145c4.735,1.01,8.2,3.794,11.373,7.213,2.167,2.338,4.412,2.49,7.124.787a26.837,26.837,0,0,1,4.017-2.412c12.222-4.919,25.208,2.39,26.987,15.571.9,6.644-1.482,12.315-6.681,16.688-3.044,2.56-3.438,4.946-1.39,8.4.337.57.652,1.152.99,1.722,3.9,6.561,3.977,13.347.01,19.686-4.075,6.511-10.242,9.867-18.17,9.152-1.91-.171-3.782-.749-5.69-.968a4.839,4.839,0,0,0-5.385,3.559,4.972,4.972,0,0,0,2.467,6.124,12.683,12.683,0,0,0,3.566,1.257c9.184,1.912,17.551.079,27.742-7.359,6.734-4.661,12.447-20.767,6.254-33.929a3.016,3.016,0,0,1,.492-3.667" transform="translate(809 2814)"/><path class="a" d="M100.055,131.757c-8.4-3.649-16.87-7.159-25.3-10.758-8.035-3.43-16.051-6.9-24.078-10.353a5.57,5.57,0,0,0-5.126.009,5.278,5.278,0,0,0-2.948,4.934c.053,2.6,1.517,4.221,3.9,5.22,9.918,4.159,19.811,8.376,29.711,12.577,6.581,2.793,13.145,5.625,19.744,8.373,2.594,1.08,5.074.488,6.5-1.339a5.584,5.584,0,0,0-2.4-8.663" transform="translate(809 2814)"/><path class="a" d="M194.875,128.592c2.6,1.473,4.982.96,7.149-1.676q11.913-14.5,23.367-29.364c3.275-4.234,6.671-8.375,9.888-12.651a5.07,5.07,0,0,0-.873-6.84,5.434,5.434,0,0,0-7.134.155c-.23.255-.785.808-1.269,1.417q-14.811,18.652-29.6,37.319a30.813,30.813,0,0,0-3.4,4.658c-1.457,2.783-.7,5.526,1.875,6.982" transform="translate(809 2814)"/><path class="a" d="M77.56,77.392a5.088,5.088,0,0,0-7.957.581,4.876,4.876,0,0,0-.141,6.4c.5.695,1.073,1.331,1.612,2q15.845,19.47,31.689,38.943a12.508,12.508,0,0,0,2.547,2.616,5.331,5.331,0,0,0,6.885-.667,5.017,5.017,0,0,0,.827-6.224,13.879,13.879,0,0,0-1.37-1.941Q98.376,102.733,85.078,86.385c-2.468-3.031-4.867-6.13-7.518-8.993" transform="translate(809 2814)"/><path class="a" d="M204.689,132.628a5.627,5.627,0,0,0-2.251,5.955c.571,2.21,2.119,3.238,4.244,3.627a6.788,6.788,0,0,0,4.019-.736c3.576-1.572,7.134-3.185,10.715-4.749q18.756-8.188,37.52-16.368a5.317,5.317,0,0,0,2.446-7.445c-1.477-2.711-4.286-3.494-7.676-2.01q-20.155,8.823-40.281,17.716c-3.074,1.359-6.211,2.593-8.736,4.01" transform="translate(809 2814)"/><path class="a" d="M156.3,101.838a7.842,7.842,0,0,0,.088-11.18,8.308,8.308,0,0,0-11.582.175,7.867,7.867,0,0,0,.425,10.892,8.039,8.039,0,0,0,11.069.113" transform="translate(809 2814)"/><path class="a" d="M144.99,60.99q-.021,5.791-.036,11.582c0,2.414-.009,4.833,1.711,6.663,1.738,1.85,3.651,2.661,5.913,1.664,2.35-1.036,3.715-3.053,3.959-6.055.088-1.079.058-2.173.058-3.26q0-5.3.006-10.594h.05a8.215,8.215,0,0,1-.034-.978c.067-2.9.037-5.8-.012-8.695q.006-14.8-.054-29.607a7,7,0,0,1,.106-1.37h-.145q.022-5.792.036-11.582c0-2.415.009-4.834-1.711-6.663C153.1.244,151.186-.566,148.924.431c-2.349,1.036-3.715,3.053-3.959,6.055-.088,1.078-.058,2.173-.058,3.26q0,5.3-.005,10.594h-.051a7.976,7.976,0,0,1,.035.978c-.067,2.9-.037,5.8.012,8.695q-.006,14.8.054,29.606a7,7,0,0,1-.107,1.371Z" transform="translate(809 2814)"/></g></svg>