<svg class='three-steps-svg' id='partner-step-2' viewBox="0 0 320.106 280.24"><defs><clipPath id="partner-step-2-a"><rect class="a" width="268.106" height="211.24"/></clipPath><filter id="partner-step-2-b" x="0" y="0" width="104" height="104" filterUnits="userSpaceOnUse"><feOffset dy="3" input="SourceAlpha"/><feGaussianBlur stdDeviation="3" result="c"/><feFlood flood-opacity="0.161"/><feComposite operator="in" in2="c"/><feComposite in="SourceGraphic"/></filter></defs><g transform="translate(52 69)"><g class="b"><path class="c" d="M604.827,345.909a3.071,3.071,0,0,0,3.071-3.071V330.049a10.113,10.113,0,0,1,10.1-10.1c.282,0,.578.014.905.043a3.055,3.055,0,0,0,.85-.043h6.1a33.9,33.9,0,0,0,38.858,0h7.152a10.113,10.113,0,0,1,10.1,10.1v12.789a3.071,3.071,0,0,0,6.142,0V330.049A16.262,16.262,0,0,0,671.868,313.8h-8.147a3.07,3.07,0,0,0-1.839.611,27.753,27.753,0,0,1-33.19,0,3.07,3.07,0,0,0-1.839-.611h-7.676a3.115,3.115,0,0,0-.367.022c-.276-.014-.544-.022-.81-.022a16.262,16.262,0,0,0-16.244,16.244v12.789a3.071,3.071,0,0,0,3.071,3.071" transform="translate(-509.355 -265.619)"/><path class="c" d="M755.5,47.072a23.536,23.536,0,1,0-23.536-23.536A23.563,23.563,0,0,0,755.5,47.072m0-40.93a17.394,17.394,0,1,1-17.394,17.394A17.414,17.414,0,0,1,755.5,6.142" transform="translate(-619.573)"/><path class="c" d="M1253.748,1166.6H1245.6a3.071,3.071,0,0,0-1.839.611,27.753,27.753,0,0,1-33.19,0,3.071,3.071,0,0,0-1.839-.611h-7.676a3.107,3.107,0,0,0-.367.022c-.276-.014-.544-.022-.81-.022a16.262,16.262,0,0,0-16.244,16.244v12.789a3.071,3.071,0,0,0,6.142,0v-12.789a10.113,10.113,0,0,1,10.1-10.1c.282,0,.578.014.905.043a3.064,3.064,0,0,0,.85-.043h6.1a33.9,33.9,0,0,0,38.858,0h7.152a10.113,10.113,0,0,1,10.1,10.1v12.789a3.071,3.071,0,0,0,6.142,0v-12.789a16.262,16.262,0,0,0-16.244-16.244" transform="translate(-1001.885 -987.467)"/><path class="c" d="M1337.385,899.87a23.536,23.536,0,1,0-23.536-23.536,23.563,23.563,0,0,0,23.536,23.536m0-40.93a17.394,17.394,0,1,1-17.394,17.394,17.413,17.413,0,0,1,17.394-17.394" transform="translate(-1112.104 -721.848)"/><path class="c" d="M70.112,1166.6H61.965a3.07,3.07,0,0,0-1.839.611,27.754,27.754,0,0,1-33.191,0,3.07,3.07,0,0,0-1.839-.611H17.42a3.108,3.108,0,0,0-.367.022c-.276-.014-.544-.022-.81-.022A16.262,16.262,0,0,0,0,1182.846v12.789a3.071,3.071,0,0,0,6.142,0v-12.789a10.113,10.113,0,0,1,10.1-10.1c.282,0,.578.014.905.043a3.066,3.066,0,0,0,.85-.043h6.1a33.9,33.9,0,0,0,38.858,0h7.152a10.113,10.113,0,0,1,10.1,10.1v12.789a3.071,3.071,0,0,0,6.142,0v-12.789A16.262,16.262,0,0,0,70.112,1166.6" transform="translate(0 -987.467)"/><path class="c" d="M153.749,899.87a23.536,23.536,0,1,0-23.536-23.536,23.563,23.563,0,0,0,23.536,23.536m0-40.93a17.394,17.394,0,1,1-17.394,17.394,17.414,17.414,0,0,1,17.394-17.394" transform="translate(-110.218 -721.848)"/><path class="c" d="M803.581,782.926h-9.569v-9.569a3.839,3.839,0,1,0-7.678,0v9.569h-9.569a3.839,3.839,0,0,0,0,7.678h9.569v9.569a3.839,3.839,0,0,0,7.678,0V790.6h9.569a3.839,3.839,0,0,0,0-7.678" transform="translate(-654.241 -651.356)"/><path class="c" d="M629.5,601.428a3.071,3.071,0,0,0,3.187-5.251l-24.753-15.022a33.438,33.438,0,0,0-27.115-47.662v-20.8a3.071,3.071,0,0,0-6.142,0v20.8A33.452,33.452,0,0,0,547.8,581.647l-23.942,14.53a3.071,3.071,0,1,0,3.187,5.251l23.991-14.56a33.925,33.925,0,0,0,3.078,3.538,33.421,33.421,0,0,0,47.264,0,33.855,33.855,0,0,0,3.4-3.977Zm-51.752-7.376a27.279,27.279,0,1,1,27.279-27.279,27.31,27.31,0,0,1-27.279,27.279" transform="translate(-442.167 -431.365)"/></g><g transform="translate(-404 -4854)"><g class="e" transform="matrix(1, 0, 0, 1, 352, 4785)"><circle class="c" cx="43" cy="43" r="43" transform="translate(9 6)"/></g><text class="d" transform="translate(404 4846)"><tspan x="-9.422" y="0">2</tspan></text></g></g></svg>