<svg class='staffing-icon' id='strategy' viewBox="0 0 269.496 275.926"><path class="a" d="M210.063,179.929a12.827,12.827,0,1,0-11.483-7.135l-20.547,20.547a12.785,12.785,0,0,0-12.842.861l-10.9-10.9a12.816,12.816,0,1,0-22.964-.787l-20.762,20.762a12.838,12.838,0,1,0,5.545,4.818l20.035-20.035a12.782,12.782,0,0,0,12.978.438l11.4,11.4a12.817,12.817,0,1,0,22.876-1.561l20.178-20.178a12.731,12.731,0,0,0,6.485,1.769m0-18.3a5.487,5.487,0,1,1-5.487,5.487,5.493,5.493,0,0,1,5.487-5.487M105.29,220.437a5.487,5.487,0,1,1,5.487-5.487,5.493,5.493,0,0,1-5.487,5.487M143,182.727a5.487,5.487,0,1,1,5.487-5.487A5.493,5.493,0,0,1,143,182.727m29.353,27.585a5.487,5.487,0,1,1,5.487-5.487,5.493,5.493,0,0,1-5.487,5.487" transform="translate(-58.591 -97.762)"/><path class="a" d="M189.559,405.111l-37.134-22.119v51.152l37.133-22.114a3.654,3.654,0,0,0,1.2.2H292.165a3.664,3.664,0,1,0,0-7.328H190.758a3.648,3.648,0,0,0-1.2.2" transform="translate(-96.575 -242.659)"/><path class="a" d="M500.7,424.725A18.3,18.3,0,0,1,491.074,422a3.664,3.664,0,1,0-3.849,6.236A25.678,25.678,0,1,0,484,386.867a3.664,3.664,0,1,0,4.766,5.566A18.348,18.348,0,1,1,500.7,424.725" transform="translate(-305.847 -241.208)"/><path class="a" d="M406.719,378.657a3.664,3.664,0,1,0-6.73,2.9,51.882,51.882,0,1,0-.71-39.29,3.664,3.664,0,1,0,6.831,2.653,44.565,44.565,0,1,1,.609,33.738" transform="translate(-252.82 -195.875)"/><path class="a" d="M405.9,247.05a74.676,74.676,0,0,0-72.7,57.629,3.664,3.664,0,0,0,7.137,1.665,67.314,67.314,0,1,1,.718,33.51A3.664,3.664,0,0,0,334,341.825a75.153,75.153,0,0,0,26.4,39.052,73.945,73.945,0,0,0,45.5,15.467,74.647,74.647,0,0,0,0-149.294" transform="translate(-211.052 -156.528)"/><path class="a" d="M203.1,585.9H137.314a3.664,3.664,0,1,0,0,7.328H203.1a3.664,3.664,0,0,0,0-7.328" transform="translate(-84.679 -371.22)"/><path class="a" d="M137.314,545.979h31.774a3.664,3.664,0,0,0,0-7.328H137.314a3.664,3.664,0,1,0,0,7.328" transform="translate(-84.679 -341.283)"/><path class="a" d="M203.1,634.5H137.314a3.664,3.664,0,1,0,0,7.328H203.1a3.664,3.664,0,0,0,0-7.328" transform="translate(-84.679 -402.012)"/><path class="a" d="M191.633,244.36a3.664,3.664,0,0,0-3.664,3.664V268.6H7.328V7.328H43.035v17.9H20.482a3.664,3.664,0,0,0-3.664,3.664V255.444a3.664,3.664,0,0,0,3.664,3.664H176.3a3.664,3.664,0,0,0,3.664-3.664v-9.4a3.664,3.664,0,1,0-7.328,0v5.735H24.147V32.556H43.035V47.689A3.664,3.664,0,0,0,46.7,51.353H151.473a3.665,3.665,0,0,0,3.664-3.664V32.556h17.5V83.3a3.664,3.664,0,1,0,7.328,0V28.892a3.664,3.664,0,0,0-3.664-3.664H155.137V7.328h32.832V78.5a3.664,3.664,0,1,0,7.328,0V3.664A3.664,3.664,0,0,0,191.633,0H3.664A3.664,3.664,0,0,0,0,3.664v268.6a3.664,3.664,0,0,0,3.664,3.664H191.633a3.664,3.664,0,0,0,3.664-3.664V248.024a3.664,3.664,0,0,0-3.664-3.664M147.809,44.025H50.364V7.329h97.445Z"/></svg>