<svg class='k1-icon staffing-icon' id='prescreening' viewBox="0 0 130.605 78.24"><g transform="translate(0 0)"><path class="a" d="M296.983,403.206H278.311a5.466,5.466,0,0,1-5.577-5.515,21.366,21.366,0,0,1,1.626-9.08,11.81,11.81,0,0,1,1.321-2.31,1.2,1.2,0,0,0,.224-.981,13.027,13.027,0,0,0-2.479-6.333,12.879,12.879,0,0,0-5.685-3.947c-.6-.232-1.21-.423-1.823-.607a1.761,1.761,0,0,1-1.354-2.16,1.692,1.692,0,0,1,2.247-1.179,19.753,19.753,0,0,1,6.385,2.945,14.516,14.516,0,0,1,5.6,8.173c.19.678.195.68.8.284a19.994,19.994,0,0,1,5.81-2.588,1.728,1.728,0,0,1,2.319,1.151,1.76,1.76,0,0,1-1.4,2.183,15.979,15.979,0,0,0-6.131,3.137,10.948,10.948,0,0,0-3.4,5.574,22.059,22.059,0,0,0-.617,5.468,2.077,2.077,0,0,0,2.266,2.289q18.549.005,37.1,0a1.972,1.972,0,0,0,2.219-1.928,17.23,17.23,0,0,0-1.476-8.156,11.807,11.807,0,0,0-6.561-5.658c-.709-.284-1.44-.513-2.165-.756a1.746,1.746,0,0,1-1.337-2.113,1.716,1.716,0,0,1,2.284-1.219,20.146,20.146,0,0,1,4.316,1.707,13.937,13.937,0,0,1,1.637,1c.449.329.574.166.689-.279a14.665,14.665,0,0,1,2.909-5.765A16.689,16.689,0,0,1,325.5,371.6c.563-.2,1.137-.384,1.718-.53a1.7,1.7,0,0,1,2.156,1.167,1.732,1.732,0,0,1-1.255,2.166,16.561,16.561,0,0,0-5.778,2.771,11.574,11.574,0,0,0-4.122,7.009,3.448,3.448,0,0,0,.516,2.881,16.185,16.185,0,0,1,2.355,7.5,28.52,28.52,0,0,1,.116,3.1,5.464,5.464,0,0,1-5.607,5.548H296.983" transform="translate(-231.68 -324.967)"/><path class="a" d="M109.751,164.853a11.161,11.161,0,0,1,5.469,1.452.755.755,0,0,0,.995-.049,16,16,0,0,1,5.639-2.775,1.78,1.78,0,0,1,2.374,1.161,1.733,1.733,0,0,1-1.363,2.145,15.171,15.171,0,0,0-3.894,1.739c-.429.277-.475.476-.158.908a13.488,13.488,0,0,1,1.878,13.394,11.4,11.4,0,0,1-9.122,7.787,10.563,10.563,0,0,1-9.9-3.536,13.825,13.825,0,0,1-.81-17.547,11.316,11.316,0,0,1,8.9-4.679m-8.17,12.4a10.609,10.609,0,0,0,2.443,7.3A7.573,7.573,0,0,0,114.5,185.7a10.233,10.233,0,0,0,.232-15.528,6.992,6.992,0,0,0-8.153-1.016,9.113,9.113,0,0,0-5,8.088" transform="translate(-85.927 -143.106)"/><path class="a" d="M745.8,177.7a13.36,13.36,0,0,1,2.831-8.434c.316-.415.242-.6-.154-.863a16.013,16.013,0,0,0-4.006-1.79,1.675,1.675,0,0,1-1.3-1.965,1.713,1.713,0,0,1,2.2-1.356,15.956,15.956,0,0,1,5.724,2.739.927.927,0,0,0,1.207.1,10.983,10.983,0,0,1,13.72,2.563,13.416,13.416,0,0,1,3.287,9.133,13.025,13.025,0,0,1-5.941,11.127,10.859,10.859,0,0,1-11.63-.021c-4.018-2.663-5.81-6.51-5.936-11.229m20.044.036a10.207,10.207,0,0,0-1.033-4.621c-2.574-5.336-9.12-6.824-13.23-1.988a10.378,10.378,0,0,0-.216,12.863,7.5,7.5,0,0,0,11.144,1.257,9.651,9.651,0,0,0,3.335-7.512" transform="translate(-650.921 -142.968)"/><path class="a" d="M442.5,272.237a11.077,11.077,0,0,1-9.806-5.913,13.342,13.342,0,0,1,.077-14.152,10.975,10.975,0,0,1,9.957-5.8,10.813,10.813,0,0,1,8.373,4.071,13.232,13.232,0,0,1,3.2,8.473,13.036,13.036,0,0,1-7.564,12.482,9.763,9.763,0,0,1-4.24.833m-8.248-13.549a10.69,10.69,0,0,0,1.69,6.339,7.7,7.7,0,0,0,13.045.246,10.443,10.443,0,0,0-.542-12.623,7.546,7.546,0,0,0-10.65-1.094,9.6,9.6,0,0,0-3.542,7.132" transform="translate(-377.256 -215.803)"/><path class="a" d="M20.614,394.44H5.666A5.5,5.5,0,0,1,0,388.813,21.29,21.29,0,0,1,1.674,379.8c1.937-4.245,5.389-6.74,9.676-8.237.449-.157.9-.305,1.36-.43a1.736,1.736,0,1,1,1,3.315,20.891,20.891,0,0,0-4.338,1.811c-3.546,2.058-5.248,5.252-5.722,9.215a25.59,25.59,0,0,0-.144,3.28,2.105,2.105,0,0,0,2.18,2.259c.289.014.579,0,.868,0q14.731,0,29.462,0a1.8,1.8,0,0,1,1.713.781,1.7,1.7,0,0,1-1.48,2.638c-1.923.021-3.846.006-5.768.006H20.614" transform="translate(0 -325.002)"/><path class="a" d="M763.366,394.362q-7.722,0-15.445,0a1.689,1.689,0,0,1-1.737-2.366,1.575,1.575,0,0,1,1.416-1.04,7.008,7.008,0,0,1,.744-.011q14.856,0,29.711,0a2.524,2.524,0,0,0,1.929-.675,1.7,1.7,0,0,0,.544-1.15,18.207,18.207,0,0,0-1.119-7.608,11.446,11.446,0,0,0-6.554-6.243c-.835-.354-1.712-.611-2.569-.915a1.73,1.73,0,1,1,.981-3.314,18.165,18.165,0,0,1,8.351,4.653,15.112,15.112,0,0,1,4.048,8.345,18.089,18.089,0,0,1,.277,5.674,5.419,5.419,0,0,1-5.443,4.649q-7.568.007-15.135,0" transform="translate(-653.464 -324.926)"/><path class="a" d="M614.72,21.8a9.839,9.839,0,0,1-9.09-6.522,11.335,11.335,0,0,1,1.057-10.735c3.628-5.476,10.4-5.884,14.561-1.826a11.584,11.584,0,0,1,.194,16.251A9.31,9.31,0,0,1,614.72,21.8m6.473-10.84a7.825,7.825,0,0,0-1.484-4.782,5.909,5.909,0,0,0-9.168-.915,8.212,8.212,0,0,0,.135,11.456,5.724,5.724,0,0,0,6.933.839c2.491-1.471,3.477-3.811,3.583-6.6" transform="translate(-529.71)"/><path class="a" d="M295.9,21.949c-2.818-.069-5.559-1.854-7.434-4.962a11.6,11.6,0,0,1,.715-12.908,9.418,9.418,0,0,1,15.665.588,11.6,11.6,0,0,1-1.64,14.718c-1.765,1.695-3.919,2.578-7.307,2.563m-5.566-10.281a7.652,7.652,0,0,0,1.33,3.912,5.9,5.9,0,0,0,9.152,1.295,8.156,8.156,0,0,0,.241-11.4,5.814,5.814,0,0,0-8.478-.015c-1.537,1.526-2.211,3.4-2.246,6.206" transform="translate(-251.247 -0.151)"/><path class="a" d="M540.889,169.566a2.006,2.006,0,0,1,.542-1.345,13.53,13.53,0,0,1,5.576-4.1,16.493,16.493,0,0,1,2.341-.806,1.728,1.728,0,1,1,.958,3.32,18.29,18.29,0,0,0-2.72,1.029,9.678,9.678,0,0,0-3.51,2.785,1.72,1.72,0,0,1-2.765.25,1.527,1.527,0,0,1-.423-1.128" transform="translate(-473.766 -142.982)"/><path class="a" d="M426.876,163.164a15.513,15.513,0,0,1,8.319,5.017,2.129,2.129,0,0,1,.518,1.1,1.722,1.722,0,0,1-1.049,1.8,1.7,1.7,0,0,1-2.083-.632,10.1,10.1,0,0,0-4.444-3.248c-.67-.269-1.367-.468-2.043-.724a1.681,1.681,0,0,1-1.062-1.885,1.781,1.781,0,0,1,1.844-1.427" transform="translate(-372.26 -142.916)"/></g></svg>