<svg class='value-icon' id='relationship-first' viewBox="0 0 184.395 216.514"><path class="a" d="M18.7,13.239l-4.9,1.112L12.23,8.094,20.782,5.66h5.875V35.071H18.7Z" transform="translate(-6.111 -5.66)"/><path class="a" d="M40.719,5.66V25.406h4.519v2.746H40.719v6.953H37.59V28.153H22.154l-.834-2.364L37.833,5.66ZM37.59,10.318,25.353,25.372H37.59Z" transform="translate(16.4 -5.66)"/><path class="a" d="M32.5,30.507l5.215-4.937a5.91,5.91,0,0,0,4.554,2.712c2.051,0,3.476-1.356,3.476-4.067V5.72h8.031V24.25a10.742,10.742,0,0,1-2.885,8.2,10.986,10.986,0,0,1-8,2.955,11.924,11.924,0,0,1-10.395-4.9Z" transform="translate(44.087 -5.511)"/><path class="a" d="M43.64,5.72H63.421V8.188L50.176,34.922H46.491L59.667,8.745H43.64Z" transform="translate(71.674 -5.511)"/><path class="a" d="M54.32,5.72h7.544L73.858,21.155V5.72h8v29.2H74.9L62.316,18.9V34.922h-8Z" transform="translate(98.123 -5.511)"/><path class="a" d="M54.981,42.6c-6.223,0-10.951-3.476-10.951-8.309a7.892,7.892,0,0,1,5.98-7.2A7.44,7.44,0,0,1,45,20.353C45,15.8,49.662,12.6,54.981,12.6s9.977,3.2,9.977,7.753A7.44,7.44,0,0,1,59.952,27.1a7.892,7.892,0,0,1,5.98,7.162C65.932,39.264,61.308,42.6,54.981,42.6Zm0-13.906c-4.241,0-7.648,2.294-7.648,5.6s2.851,5.493,7.648,5.493,7.613-2.5,7.613-5.493-3.372-5.667-7.613-5.667Zm0-13.176c-3.789,0-6.675,2.121-6.675,5.11s2.955,5.354,6.675,5.354,6.675-2.155,6.675-5.354-2.885-5.18-6.675-5.18Z" transform="translate(72.64 11.527)"/><path class="a" d="M72.664,68.651h0A27.116,27.116,0,0,0,81.008,48.87,27.812,27.812,0,1,0,33.762,68.686,31.288,31.288,0,0,0,10.47,99v13.037a5.006,5.006,0,0,0,5.041,5.041h75.37a4.937,4.937,0,0,0,3.476-1.217,5.075,5.075,0,0,0,1.669-3.824V98.931A31.566,31.566,0,0,0,72.664,68.651ZM53.2,66.67a17.7,17.7,0,1,1,12.549-5.22A17.7,17.7,0,0,1,53.2,66.67Zm-11.438,11.3h22.91A21.172,21.172,0,0,1,85.84,99.14v7.752H20.587V99.14A21.172,21.172,0,0,1,41.758,77.968Z" transform="translate(-10.47 32.27)"/><path class="a" d="M101.055,87.986h0a27.117,27.117,0,0,0,8.378-19.816A27.812,27.812,0,1,0,62.188,87.986h0A31.288,31.288,0,0,0,39,118.37v13a5.006,5.006,0,0,0,5.041,5.076h75.092a5.215,5.215,0,0,0,5.076-5.076V118.405a30.975,30.975,0,0,0-23.153-30.419Zm-19.4-2.155a17.7,17.7,0,1,1,0,.07ZM70.289,97.2H93.2A21.172,21.172,0,0,1,114.37,118.37v7.857H49.186V118.37A21.206,21.206,0,0,1,70.289,97.2Z" transform="translate(60.183 80.066)"/><path class="a" d="M95,38.51H51.062l7.787-7.753a5.089,5.089,0,0,0-7.2-7.2L35.174,40.075A5.319,5.319,0,0,0,33.61,43.76a5.423,5.423,0,0,0,1.53,3.685L51.653,63.958a5.215,5.215,0,0,0,2.434,1.391l1.078.278,1.043-.417a7.822,7.822,0,0,0,2.642-1.6,5.215,5.215,0,0,0,0-7.231l-7.787-7.753H89.929V72.337A5.006,5.006,0,0,0,95,77.447a5.076,5.076,0,0,0,5.041-5.041V43.586A5.006,5.006,0,0,0,95,38.51Z" transform="translate(46.836 34.982)"/><path class="a" d="M82.239,80.539l-16.791-16.1a5.18,5.18,0,0,0-7.3,0,5.284,5.284,0,0,0,.348,7.266l7.787,7.753H27.207V55.717a5.076,5.076,0,0,0-10.117,0v28.75a5.006,5.006,0,0,0,5.041,5.041H66.178L58.495,97.33a5.11,5.11,0,0,0,0,6.953,5.319,5.319,0,0,0,3.685,1.564,5.6,5.6,0,0,0,3.476-1.495L82.17,87.8a5.354,5.354,0,0,0,1.6-3.72A5.25,5.25,0,0,0,82.239,80.539Z" transform="translate(5.924 106.773)"/></svg>