<svg xmlns="http://www.w3.org/2000/svg" xmlns:xlink="http://www.w3.org/1999/xlink" width="147.637" height="185.88" viewBox="0 0 147.637 185.88">
  <defs>
    <style>
      .cls-1, .cls-3 {
        fill: none;
      }

      .cls-2 {
        clip-path: url(#clip-path);
      }

      .cls-3 {
        stroke: #fff;
        stroke-linecap: round;
        stroke-linejoin: round;
        stroke-width: 6px;
      }
    </style>
    <clipPath id="clip-path">
      <rect id="Rectangle_168" data-name="Rectangle 168" class="cls-1" width="147.637" height="185.88"/>
    </clipPath>
  </defs>
  <g id="Group_101" data-name="Group 101" class="cls-2">
    <path id="Path_1108" data-name="Path 1108" class="cls-3" d="M328.262,338.491c11.175,24.413-4.392,54.661-4.392,54.661s-35.992-6.646-47.167-31.059c-8.1-17.7-1.54-39.174,2.681-49.644h0l2.865-6.36S317.087,314.078,328.262,338.491Z" transform="translate(-263.177 -213.148)"/>
    <path id="Path_1109" data-name="Path 1109" class="cls-3" d="M50.641,348.131c-2.718-4.734-6.76-17.435-6.76-17.435s23.866-9.978,38.561-2.763c8.827,4.335,14.331,12.855,17.546,19.866a59.368,59.368,0,0,1,3.875,11.119,62.159,62.159,0,0,1-9.429,3.945c-7.927,2.619-19.478,4.789-29.161.034C58.681,359.661,53.951,353.9,50.641,348.131Z" transform="translate(29.745 -221.309)"/>
    <path id="Path_1111" data-name="Path 1111" class="cls-3" d="M32.809,38.588C14.539,38.822,0,20.806,0,20.806S14.045.236,32.315,0c13.248-.17,24.8,9.827,30.159,15.336l3.17,3.534h0S51.079,38.354,32.809,38.588Z" transform="translate(100.905 80.475) rotate(165)"/>
  </g>
</svg>
